<?xml version="1.0" encoding="UTF-8"?>
<svg version="1.1" xmlns="http://www.w3.org/2000/svg" width="1292" height="823">
<path d="M0 0 C426.36 0 852.72 0 1292 0 C1292 271.59 1292 543.18 1292 823 C865.64 823 439.28 823 0 823 C0 551.41 0 279.82 0 0 Z " fill="#131313" transform="translate(0,0)"/>
<path d="M0 0 C54.45 0 108.9 0 165 0 C165 149.82 165 299.64 165 454 C259.38 454 353.76 454 451 454 C451 495.58 451 537.16 451 580 C302.17 580 153.34 580 0 580 C0 388.6 0 197.2 0 0 Z " fill="#FDFEFD" transform="translate(124,117)"/>
<path d="M0 0 C0 41.91 0 83.82 0 127 C35.64 127 71.28 127 108 127 C108 162.97 108 198.94 108 236 C72.69 236.33 37.38 236.66 1 237 C0.94167423 262.40526725 0.94167423 262.40526725 0.90234375 287.81054688 C0.89050403 298.17962638 0.87663059 308.54867325 0.84912109 318.91772461 C0.82909045 326.47144804 0.81626077 334.02514483 0.81182301 341.57889408 C0.8092319 345.57284308 0.80320839 349.56671592 0.78853989 353.56064034 C0.77480247 357.33217996 0.7708094 361.10361321 0.77378464 364.87517548 C0.77298582 366.89406707 0.76230984 368.91294751 0.75115967 370.93180847 C0.77784543 382.97412357 1.73117157 395.00263206 5.75 406.4375 C6.01312988 407.19973877 6.27625977 407.96197754 6.54736328 408.74731445 C8.54042188 414.26175978 10.777828 418.8390189 15 423 C15.59554688 423.6084375 16.19109375 424.216875 16.8046875 424.84375 C26.95320638 434.46242653 38.49376032 437.38287784 52.125 437.25 C53.144729 437.24178223 54.16445801 437.23356445 55.21508789 437.22509766 C71.04189831 436.99159351 84.67938508 433.88604987 98.8125 426.625 C102 425 102 425 105 425 C108.08909741 439.46424435 110.55100854 454.01823078 112.95149231 468.60844421 C113.08093735 469.3950795 113.21038239 470.18171478 113.34375 470.9921875 C113.54063667 472.18924065 113.54063667 472.18924065 113.74150085 473.41047668 C115.53482067 484.284239 117.40745646 495.14462586 119.27578735 506.00570679 C119.71194066 508.5414387 120.14701541 511.077354 120.58203125 513.61328125 C120.7109375 514.35969879 120.83984375 515.10611633 120.97265625 515.87515259 C122.18964947 522.97471886 123.1265159 529.7885939 123 537 C92.20318488 553.63028017 55.27856432 557.44837833 20.875 557.375 C19.94754974 557.37478851 19.02009949 557.37457703 18.06454468 557.37435913 C-3.34894232 557.32592739 -23.73447843 555.2633064 -44 548 C-45.1859375 547.64421875 -46.371875 547.2884375 -47.59375 546.921875 C-75.00689549 538.6042112 -99.72546032 521.87618652 -117 499 C-117.88751953 497.83597656 -117.88751953 497.83597656 -118.79296875 496.6484375 C-134.40945171 475.27851346 -143.01811372 450.76122751 -148 425 C-148.14098429 424.27540462 -148.28196857 423.55080925 -148.42722511 422.80425644 C-151.84252211 404.33984858 -151.39428331 385.74192573 -151.30418181 367.04717493 C-151.28517712 362.42549662 -151.28364614 357.80380975 -151.28010559 353.18209839 C-151.27085392 344.46690618 -151.24633534 335.75182951 -151.21605712 327.03668773 C-151.18229633 317.09926088 -151.16597312 307.16182794 -151.15097082 297.22435784 C-151.11977798 276.81616013 -151.0648542 256.40812041 -151 236 C-170.8 236 -190.6 236 -211 236 C-211 200.03 -211 164.06 -211 127 C-191.2 127 -171.4 127 -151 127 C-151 91.69 -151 56.38 -151 20 C-144.4013332 18.68026664 -137.95000939 17.50601753 -131.296875 16.66796875 C-130.39245667 16.55111221 -129.48803833 16.43425568 -128.55621338 16.31385803 C-125.62120129 15.93528043 -122.68560765 15.56142857 -119.75 15.1875 C-117.70177216 14.92389671 -115.65359563 14.65989443 -113.60546875 14.39550781 C-109.43440953 13.85727104 -105.26317167 13.32045321 -101.09179688 12.78466797 C-92.86128812 11.7261387 -84.63326139 10.64888041 -76.40588379 9.5663147 C-74.07376626 9.25969845 -71.74148575 8.95434822 -69.40917969 8.64916992 C-60.59711243 7.49331366 -51.79618152 6.27145549 -43 5 C-37.65017018 4.23051133 -32.29937976 3.46805908 -26.94750977 2.71289062 C-25.34471901 2.48581903 -23.74218202 2.2569496 -22.13989258 2.02636719 C-19.7826888 1.68747589 -17.42467101 1.3548547 -15.06640625 1.0234375 C-14.35899796 0.92034271 -13.65158966 0.81724792 -12.92274475 0.71102905 C-8.50075147 0.09755694 -4.52984295 0 0 0 Z " fill="#7B4FDA" transform="translate(1034,149)"/>
<path d="M0 0 C0 142.23 0 284.46 0 431 C-50.16 431 -100.32 431 -152 431 C-152 295.37 -152 159.74 -152 20 C-124.68432004 15.62949121 -124.68432004 15.62949121 -114.83105469 14.4609375 C-110.53966718 13.94461456 -106.25858855 13.36933363 -101.9765625 12.78125 C-101.20979187 12.67643311 -100.44302124 12.57161621 -99.65301514 12.46362305 C-96.53081051 12.0365348 -93.40878237 11.60820387 -90.28710938 11.17724609 C-80.9219074 9.88610214 -71.55642088 8.6997807 -62.15745544 7.68136597 C-56.81560269 7.10016752 -51.50086042 6.42203309 -46.1875 5.625 C-44.440188 5.37051744 -42.69278635 5.11665002 -40.9453125 4.86328125 C-39.54587402 4.65952881 -39.54587402 4.65952881 -38.11816406 4.45166016 C-31.93515679 3.55606327 -25.74939753 2.68076891 -19.5625 1.8125 C-18.31170654 1.63348145 -17.06091309 1.45446289 -15.7722168 1.27001953 C-14.59054932 1.1048584 -13.40888184 0.93969727 -12.19140625 0.76953125 C-11.14154541 0.62104736 -10.09168457 0.47256348 -9.01000977 0.31958008 C-6 0 -6 0 0 0 Z " fill="#7B4FDA" transform="translate(777,266)"/>
<path d="M0 0 C0.11645242 9.81490535 0.20499619 19.62964318 0.25906086 29.44510174 C0.28502474 34.00409745 0.32017729 38.56261644 0.37719727 43.12133789 C0.43199363 47.53046588 0.46151954 51.93913878 0.47438622 56.34858131 C0.48354151 58.0209347 0.50141696 59.6932665 0.52865028 61.3654232 C0.72578869 73.98535208 -0.541037 84.71379602 -8.6875 95 C-15.66839108 102.19203334 -25.29963741 105.71187628 -35.11181641 106.89794922 C-36.30231598 107.04505341 -37.49281555 107.19215759 -38.71939087 107.34371948 C-40.64106583 107.57189865 -40.64106583 107.57189865 -42.6015625 107.8046875 C-43.96088144 107.97098693 -45.32012286 108.13792115 -46.67929077 108.30545044 C-50.26819168 108.74646803 -53.85789302 109.18056 -57.44787598 109.6126709 C-63.79173862 110.37706455 -70.13431896 111.15198877 -76.4765625 111.9296875 C-77.16930834 112.01442825 -77.86205418 112.09916901 -78.57579231 112.18647766 C-90.65710011 113.66777381 -102.70476692 115.33444411 -114.74829102 117.09912109 C-141.75069833 121.0406382 -141.75069833 121.0406382 -152 121 C-152.0931089 110.40273935 -152.16397108 99.80557769 -152.20724869 89.20798969 C-152.22803075 84.28589127 -152.25617482 79.36407485 -152.30175781 74.44213867 C-152.34555294 69.68290158 -152.36920745 64.92393395 -152.37950897 60.16451073 C-152.38684041 58.35821485 -152.40115517 56.55193196 -152.42292023 54.74575233 C-152.60227687 39.22996746 -151.13652185 25.66261716 -139.96484375 13.84765625 C-130.5613278 4.94168083 -119.96997952 0.71590707 -107.14086914 0.68115234 C-106.28106949 0.67110672 -105.42126984 0.6610611 -104.53541565 0.65071106 C-101.70200198 0.61992338 -98.86868406 0.6028269 -96.03515625 0.5859375 C-94.03998552 0.56718415 -92.04482238 0.5476078 -90.04966736 0.5272522 C-84.79001532 0.4759411 -79.53033655 0.43637677 -74.27056885 0.39910889 C-69.00387661 0.35952929 -63.73730335 0.3079569 -58.47070312 0.2578125 C-38.98064922 0.07734338 -19.49101084 -0.07146836 0 0 Z " fill="#7B4FDB" transform="translate(777,116)"/>
<path d="M0 0 C0 142.23 0 284.46 0 431 C-50.16 431 -100.32 431 -152 431 C-152 295.37 -152 159.74 -152 20 C-148.7 19.67 -145.4 19.34 -142 19 C-145.4352048 21.29013653 -146.985331 21.17842973 -151 21 C-150.8952698 70.53875409 -150.78546455 120.07749471 -150.66888306 169.61622241 C-150.655114 175.46892032 -150.64138683 181.32161833 -150.62768555 187.17431641 C-150.62495724 188.33944982 -150.62222894 189.50458322 -150.61941796 190.70502371 C-150.57538093 209.55383371 -150.53473421 228.40264956 -150.49534739 247.25146979 C-150.45483669 266.60188834 -150.41066644 285.95229606 -150.36312145 305.30269861 C-150.3339145 317.2363459 -150.30753877 329.16999247 -150.28482103 341.10365391 C-150.26895439 349.29456736 -150.24952294 357.48546759 -150.22733159 365.67636633 C-150.21464544 370.39721888 -150.20348945 375.11806147 -150.19658089 379.83892632 C-150.19020637 384.17100479 -150.1793005 388.50304863 -150.1649667 392.83510786 C-150.16058183 394.39257894 -150.15778282 395.95005558 -150.15683801 397.50753254 C-150.15529365 399.64667449 -150.1476244 401.78572068 -150.1386652 403.92484283 C-150.13600716 405.1065325 -150.13334911 406.28822217 -150.13061053 407.50572062 C-149.93186102 414.34464723 -149.42678063 421.17150991 -149 428 C-101.15 428 -53.3 428 -4 428 C-3.02749115 424.1099646 -2.86982281 421.06524285 -2.8613348 417.073452 C-2.85707147 416.02311399 -2.85707147 416.02311399 -2.85272202 414.95155704 C-2.84436751 412.59364911 -2.84310622 410.23579026 -2.84178162 407.87786865 C-2.83721678 406.17499749 -2.83221687 404.47212746 -2.82681805 402.76925874 C-2.8132186 398.08085018 -2.80581335 393.39244888 -2.79939139 388.70402575 C-2.79139539 383.6515521 -2.77769486 378.59909361 -2.76467896 373.54663086 C-2.74290486 364.78987858 -2.72476378 356.03312477 -2.70907402 347.27635956 C-2.6863839 334.6154682 -2.65823988 321.95459361 -2.62875474 309.29371646 C-2.58106831 288.75343556 -2.53780697 268.21314781 -2.49731445 247.67285156 C-2.45796487 227.71711697 -2.41653994 207.76138847 -2.37231445 187.80566406 C-2.36822804 185.96127714 -2.36822804 185.96127714 -2.36405908 184.07962987 C-2.35037969 177.91127497 -2.3366594 171.74292017 -2.32291877 165.57456541 C-2.20893749 114.38305631 -2.10213178 63.19153402 -2 12 C-2.66 12 -3.32 12 -4 12 C-4 9.36 -4 6.72 -4 4 C-5.9587043 4.14076315 -7.91696093 4.2877676 -9.875 4.4375 C-11.51082031 4.55931641 -11.51082031 4.55931641 -13.1796875 4.68359375 C-15.94728971 4.83001703 -15.94728971 4.83001703 -18 6 C-18 5.34 -18 4.68 -18 4 C-20.64 4 -23.28 4 -26 4 C-26 3.67 -26 3.34 -26 3 C-22.79279138 2.4926043 -19.58407837 1.995421 -16.375 1.5 C-15.01955078 1.28537109 -15.01955078 1.28537109 -13.63671875 1.06640625 C-12.75371094 0.93105469 -11.87070312 0.79570312 -10.9609375 0.65625 C-10.15446777 0.53056641 -9.34799805 0.40488281 -8.51708984 0.27539062 C-5.69342583 -0.03354177 -2.84051364 0 0 0 Z " fill="#6D4EAC" transform="translate(777,266)"/>
<path d="M0 0 C35.31 0 70.62 0 107 0 C107 35.97 107 71.94 107 109 C71.69 109.33 36.38 109.66 0 110 C-0.05832577 135.40526725 -0.05832577 135.40526725 -0.09765625 160.81054688 C-0.10949597 171.17962638 -0.12336941 181.54867325 -0.15087891 191.91772461 C-0.17090955 199.47144804 -0.18373923 207.02514483 -0.18817699 214.57889408 C-0.1907681 218.57284308 -0.19679161 222.56671592 -0.21146011 226.56064034 C-0.22519753 230.33217996 -0.2291906 234.10361321 -0.22621536 237.87517548 C-0.22701418 239.89406707 -0.23769016 241.91294751 -0.24884033 243.93180847 C-0.22215457 255.97412357 0.73117157 268.00263206 4.75 279.4375 C5.01312988 280.19973877 5.27625977 280.96197754 5.54736328 281.74731445 C7.54042188 287.26175978 9.777828 291.8390189 14 296 C14.59554688 296.6084375 15.19109375 297.216875 15.8046875 297.84375 C25.95320638 307.46242653 37.49376032 310.38287784 51.125 310.25 C52.144729 310.24178223 53.16445801 310.23356445 54.21508789 310.22509766 C70.04189831 309.99159351 83.67938508 306.88604987 97.8125 299.625 C101 298 101 298 104 298 C104.33 300.64 104.66 303.28 105 306 C104.34 306.33 103.68 306.66 103 307 C102.01 305.515 102.01 305.515 101 304 C94.88160387 305.90973242 94.88160387 305.90973242 89.0625 308.5625 C85.46544343 310.25091431 82.07736834 310.85132776 78.171875 311.47265625 C75.80530035 311.84783314 75.80530035 311.84783314 74 314 C72.32422563 313.71597686 70.65882857 313.37037367 69 313 C66.54038615 312.90795118 64.07852224 312.86933072 61.6171875 312.8671875 C60.92110382 312.86623077 60.22502014 312.86527405 59.50784302 312.86428833 C58.04380197 312.86361069 56.57975785 312.86543581 55.11572266 312.86962891 C52.87525718 312.87499938 50.63499068 312.86966153 48.39453125 312.86328125 C46.96874956 312.86394179 45.54296799 312.86522245 44.1171875 312.8671875 C42.17755127 312.86887939 42.17755127 312.86887939 40.19873047 312.87060547 C36.97956174 312.85257679 36.97956174 312.85257679 34 314 C34 313.34 34 312.68 34 312 C30.7 311.34 27.4 310.68 24 310 C24 309.34 24 308.68 24 308 C23.34 308 22.68 308 22 308 C22 307.34 22 306.68 22 306 C20.68 306 19.36 306 18 306 C18 305.34 18 304.68 18 304 C17.38125 303.7525 16.7625 303.505 16.125 303.25 C13.64931313 301.79371361 13.04874998 300.62187494 12 298 C11.34 298 10.68 298 10 298 C10 297.34 10 296.68 10 296 C9.34 296 8.68 296 8 296 C7.32332002 294.75539217 6.65905281 293.50403104 6 292.25 C5.62875 291.55390625 5.2575 290.8578125 4.875 290.140625 C4 288 4 288 4 284 C3.34 284 2.68 284 2 284 C2 281.36 2 278.72 2 276 C1.34 276 0.68 276 0 276 C0 273.69 0 271.38 0 269 C-0.66 269 -1.32 269 -2 269 C-2.07347656 267.72769531 -2.07347656 267.72769531 -2.1484375 266.4296875 C-2.63669421 258.7691081 -3.45528748 251.34166829 -4.6953125 243.765625 C-5 241 -5 241 -4 239 C-3.90350061 237.0018949 -3.87019128 235.0004282 -3.875 233 C-3.87242188 231.9275 -3.86984375 230.855 -3.8671875 229.75 C-3.8127659 227.03817948 -3.8127659 227.03817948 -5 225 C-4.90913246 222.87194092 -4.75217377 220.74653629 -4.5625 218.625 C-4.033764 212.06325065 -3.89154677 205.57949591 -4 199 C-3.34 199 -2.68 199 -2 199 C-2.00222061 197.87469376 -2.00444122 196.74938751 -2.00672913 195.58998108 C-2.02695944 185.0093856 -2.0419716 174.42879403 -2.05181217 163.84818363 C-2.05704128 158.40797688 -2.06413943 152.96778569 -2.07543945 147.52758789 C-2.08626735 142.28214298 -2.09227662 137.03671308 -2.09487724 131.79125786 C-2.09673167 129.78529054 -2.10035262 127.77932408 -2.10573006 125.77336311 C-2.11293919 122.97397176 -2.113991 120.17464321 -2.11352539 117.37524414 C-2.11712067 116.53727295 -2.12071594 115.69930176 -2.12442017 114.8359375 C-2.11405216 109.11405216 -2.11405216 109.11405216 -1 108 C0.37876025 107.9046081 1.76236916 107.87811378 3.14442444 107.87974548 C4.48153898 107.87767924 4.48153898 107.87767924 5.84566593 107.87557125 C6.83511424 107.87916936 7.82456255 107.88276747 8.84399414 107.88647461 C10.42021246 107.88629381 10.42021246 107.88629381 12.02827358 107.88610935 C15.44725562 107.88685883 18.8661839 107.89448864 22.28515625 107.90234375 C24.38895644 107.90381306 26.49275699 107.90483384 28.59655762 107.90539551 C36.41854397 107.91064964 44.2405225 107.9246107 52.0625 107.9375 C78.2665625 107.9684375 78.2665625 107.9684375 105 108 C105 72.69 105 37.38 105 1 C70.35 1 35.7 1 0 1 C0 0.67 0 0.34 0 0 Z " fill="#7052B2" transform="translate(1035,276)"/>
<path d="M0 0 C0.90105469 0.10183594 1.80210937 0.20367187 2.73046875 0.30859375 C3.41753906 0.39238281 4.10460937 0.47617188 4.8125 0.5625 C4.8125 0.8925 4.8125 1.2225 4.8125 1.5625 C0.3575 2.0575 0.3575 2.0575 -4.1875 2.5625 C-5.10628541 5.31885624 -5.30781369 6.90235288 -5.29429626 9.73742676 C-5.29278061 10.58704483 -5.29126495 11.4366629 -5.28970337 12.31202698 C-5.282966 13.24095261 -5.27622864 14.16987823 -5.26928711 15.12695312 C-5.26622055 16.10768295 -5.26315399 17.08841278 -5.25999451 18.09886169 C-5.25283605 20.23017692 -5.24344429 22.36148554 -5.23209953 24.49278259 C-5.21474593 27.86274655 -5.20442204 31.23266333 -5.19618225 34.60266113 C-5.17169295 44.18485988 -5.13608935 53.76699501 -5.09155273 63.34912109 C-5.06481613 69.20751017 -5.04774328 75.06586252 -5.03668404 80.92430115 C-5.03046269 83.16028706 -5.0204431 85.39626566 -5.00660515 87.63221741 C-4.98745446 90.75420837 -4.98050209 93.87600522 -4.97631836 96.99804688 C-4.96755676 97.9269725 -4.95879517 98.85589813 -4.94976807 99.81297302 C-4.95107224 100.66259109 -4.9523764 101.51220917 -4.95372009 102.38757324 C-4.95057769 103.12572014 -4.94743528 103.86386703 -4.94419765 104.62438202 C-5.1875 106.5625 -5.1875 106.5625 -7.1875 109.5625 C-17.3381595 111.75114132 -28.78303668 110.64808023 -39.125 110.5625 C-42.40494469 110.53576392 -45.68483061 110.51588394 -48.96484375 110.5 C-49.70242416 110.49170166 -50.44000458 110.48340332 -51.19993591 110.47485352 C-55.29867729 110.45546644 -59.19494156 110.5895075 -63.1875 111.5625 C-67.92938808 121.04627615 -65.33459156 138.14878258 -65.3203125 148.66796875 C-65.32098822 150.44916294 -65.32196046 152.23035703 -65.32321167 154.0115509 C-65.32467185 157.70831192 -65.32258603 161.4050485 -65.31787109 165.10180664 C-65.31212845 169.83374785 -65.31549183 174.5656329 -65.32144356 179.29757214 C-65.32505564 182.95984827 -65.32390839 186.62211105 -65.32131577 190.28438759 C-65.32065067 192.03026651 -65.32146028 193.77614667 -65.32379532 195.52202415 C-65.32633751 197.95245982 -65.3224612 200.3828036 -65.31689453 202.81323242 C-65.31891876 203.52752914 -65.32094299 204.24182587 -65.32302856 204.97776794 C-65.30713972 208.72651449 -64.93251354 211.83743229 -64.1875 215.5625 C-45.3775 215.5625 -26.5675 215.5625 -7.1875 215.5625 C-7.1875 271.0025 -7.1875 326.4425 -7.1875 383.5625 C-7.5175 383.5625 -7.8475 383.5625 -8.1875 383.5625 C-8.1875 328.4525 -8.1875 273.3425 -8.1875 216.5625 C-27.9875 216.5625 -47.7875 216.5625 -68.1875 216.5625 C-68.1875 180.5925 -68.1875 144.6225 -68.1875 107.5625 C-48.3875 107.5625 -28.5875 107.5625 -8.1875 107.5625 C-8.1875 72.2525 -8.1875 36.9425 -8.1875 0.5625 C-4.98734144 -0.50421952 -3.30205706 -0.38595472 0 0 Z " fill="#7250B7" transform="translate(891.1875,168.4375)"/>
<path d="M0 0 C1.89492187 0.01353516 1.89492187 0.01353516 3.828125 0.02734375 C4.79234375 0.03894531 5.7565625 0.05054688 6.75 0.0625 C7.66735535 3.17770542 7.8623077 5.93326826 7.83229065 9.17510986 C7.82525116 10.20713531 7.81821167 11.23916077 7.81095886 12.30245972 C7.79801285 13.42886871 7.78506683 14.55527771 7.77172852 15.71582031 C7.76212097 16.90634003 7.75251343 18.09685974 7.74261475 19.32345581 C7.71529716 22.58349447 7.68339859 25.84344973 7.64946485 29.10342503 C7.61506676 32.51201258 7.58652279 35.92064904 7.55735779 39.32928467 C7.5012576 45.78198332 7.43989276 52.23462073 7.37663645 58.68725276 C7.30486928 66.03420729 7.23897114 73.38121079 7.17356598 80.72822428 C7.03890781 95.83971312 6.89687925 110.95112463 6.75 126.0625 C7.29537383 126.05642447 7.84074766 126.05034895 8.40264797 126.04408932 C21.65512015 125.89680132 34.90764198 125.75512334 48.16023922 125.6195364 C54.56901661 125.55379739 60.97776275 125.48617167 67.38647461 125.41430664 C73.56555304 125.34508485 79.74466436 125.28072424 85.92383003 125.21980476 C88.28707293 125.19563784 90.65029825 125.16968766 93.01350212 125.14196587 C96.31097537 125.1035824 99.60845288 125.0714104 102.90600586 125.04077148 C104.38738037 125.02135246 104.38738037 125.02135246 105.89868164 125.00154114 C107.23859413 124.9909819 107.23859413 124.9909819 108.60557556 124.98020935 C109.38633422 124.97191321 110.16709288 124.96361708 110.97151089 124.95506954 C112.75 125.0625 112.75 125.0625 113.75 126.0625 C113.84550698 127.47928911 113.87188483 128.90081241 113.87025452 130.32081604 C113.87231651 131.69859222 113.87231651 131.69859222 113.87442017 133.10420227 C113.87082489 134.11983749 113.86722961 135.13547272 113.86352539 136.18188477 C113.86367142 137.24516998 113.86381744 138.3084552 113.8639679 139.40396118 C113.86326825 142.93729658 113.85547343 146.47058 113.84765625 150.00390625 C113.84579225 152.44628368 113.84436827 154.88866149 113.84336853 157.33103943 C113.83954189 163.77384464 113.82971037 170.21662748 113.81866455 176.65942383 C113.80845356 183.22802426 113.80387158 189.7966283 113.79882812 196.36523438 C113.78808823 209.26433249 113.77120104 222.16341506 113.75 235.0625 C113.42 235.0625 113.09 235.0625 112.75 235.0625 C112.75 199.7525 112.75 164.4425 112.75 128.0625 C77.11 128.0625 41.47 128.0625 4.75 128.0625 C4.75 86.1525 4.75 44.2425 4.75 1.0625 C-6.8 2.7125 -18.35 4.3625 -30.25 6.0625 C-34.87 6.3925 -39.49 6.7225 -44.25 7.0625 C-44.58 6.4025 -44.91 5.7425 -45.25 5.0625 C-44.115625 4.93875 -42.98125 4.815 -41.8125 4.6875 C-40.0490625 4.378125 -40.0490625 4.378125 -38.25 4.0625 C-37.92 3.4025 -37.59 2.7425 -37.25 2.0625 C-36.36248047 2.07990234 -36.36248047 2.07990234 -35.45703125 2.09765625 C-34.66683594 2.10667969 -33.87664063 2.11570313 -33.0625 2.125 C-31.89654297 2.14240234 -31.89654297 2.14240234 -30.70703125 2.16015625 C-28.23927054 2.12960909 -28.23927054 2.12960909 -25.828125 1.55859375 C-22.88366041 0.99200738 -20.18302812 1.00190778 -17.1875 1.0625 C-13.21929337 1.18464322 -13.21929337 1.18464322 -9.33203125 0.56640625 C-6.2180345 -0.18726276 -3.19544804 -0.02958748 0 0 Z " fill="#201341" transform="translate(1029.25,147.9375)"/>
<path d="M0 0 C2.66275637 0.37258718 5.32979358 0.68319585 8 1 C8 1.33 8 1.66 8 2 C7.33581055 2.03963867 6.67162109 2.07927734 5.98730469 2.12011719 C-13.00321202 3.31237647 -28.76971336 4.70780512 -42.4375 19.4375 C-49.03640779 27.80499114 -51.28867805 38.08971474 -51.31884766 48.52734375 C-51.32889328 49.33805832 -51.3389389 50.14877289 -51.34928894 50.98405457 C-51.37991557 53.63519653 -51.39709841 56.28623849 -51.4140625 58.9375 C-51.4327907 60.78695524 -51.45236533 62.63640209 -51.4727478 64.48583984 C-51.52390054 69.33216382 -51.56361613 74.17851545 -51.60089111 79.02496338 C-51.64103688 83.97895046 -51.69208081 88.93282418 -51.7421875 93.88671875 C-51.83874699 103.59106601 -51.92321524 113.29547753 -52 123 C-46.6549901 122.32182168 -41.31023103 121.6417084 -35.96568298 120.9598999 C-34.15233306 120.72883431 -32.33891889 120.49827235 -30.5254364 120.26824951 C-20.85232356 119.0409653 -11.1905341 117.79894783 -1.5625 116.25 C21.78393638 112.62259881 21.78393638 112.62259881 27 116 C24.94921875 116.22786458 22.8984375 116.45572917 20.84765625 116.68359375 C18.98859771 116.81886614 18.98859771 116.81886614 18 118 C16.44288524 118.2111342 14.87838734 118.36892423 13.3125 118.5 C10.5480288 118.74954324 7.86091484 119.02418872 5.125 119.5 C2.07119829 119.98860827 -0.91603617 120.22154676 -4 120.4375 C-8.33439451 120.77378923 -11.90410967 121.51058533 -16 123 C-22.93146518 124.04163455 -29.8452069 124.32745855 -36.84179688 124.60546875 C-41.83154051 124.8079225 -41.83154051 124.8079225 -46.73828125 125.65625 C-49.86055964 126.13079318 -52.06500249 125.04876843 -55 124 C-54.9157088 112.44754003 -54.82086939 100.89521983 -54.71247292 89.3429594 C-54.66247623 83.97907293 -54.61614649 78.61520649 -54.578125 73.2512207 C-54.54131482 68.07698797 -54.49496652 62.90292138 -54.44193649 57.72883034 C-54.42336983 55.7524589 -54.40827032 53.77605182 -54.39665604 51.7996273 C-54.37983245 49.03641025 -54.35080695 46.27357561 -54.31884766 43.51049805 C-54.31668747 42.68906815 -54.31452728 41.86763824 -54.31230164 41.02131653 C-54.25515575 37.1667914 -54.18766454 35.28149682 -52 32 C-51.66322648 30.69834363 -51.37354464 29.38384449 -51.125 28.0625 C-50.26612299 24.31779623 -48.98784218 22.50593215 -46 20 C-45.67 19.34 -45.34 18.68 -45 18 C-44.34 18 -43.68 18 -43 18 C-42.71125 17.38125 -42.4225 16.7625 -42.125 16.125 C-41 14 -41 14 -39 12 C-38.01 12 -37.02 12 -36 12 C-35.67 11.01 -35.34 10.02 -35 9 C-33.66666667 8.66666667 -32.33333333 8.33333333 -31 8 C-30.67 7.01 -30.34 6.02 -30 5 C-25.77082706 2.25103759 -22.0070961 1.59020905 -17.10546875 1.1796875 C-13.8245882 0.89968656 -10.68852474 0.17213118 -7.5 -0.625 C-4.65149449 -1.05227583 -2.80049391 -0.65127765 0 0 Z " fill="#1B1132" transform="translate(677,114)"/>
<path d="M0 0 C0.33 0.99 0.66 1.98 1 3 C-0.45706726 3.50367757 -1.91570096 4.00282556 -3.375 4.5 C-4.18710937 4.7784375 -4.99921875 5.056875 -5.8359375 5.34375 C-8 6 -8 6 -10 6 C-10 6.99 -10 7.98 -10 9 C-10.66 9 -11.32 9 -12 9 C-12.33 9.99 -12.66 10.98 -13 12 C-13.66 12 -14.32 12 -15 12 C-15 12.66 -15 13.32 -15 14 C-15.66 14 -16.32 14 -17 14 C-17.268125 14.886875 -17.53625 15.77375 -17.8125 16.6875 C-19 20 -19 20 -20.5625 22.5625 C-22.05435488 25.09216697 -22.5875699 27.11298928 -23 30 C-23.66 30 -24.32 30 -25 30 C-25.144375 31.27875 -25.28875 32.5575 -25.4375 33.875 C-25.70642746 36.25692894 -25.92226346 37.84452691 -27 40 C-27.09665042 42.01515314 -27.12796541 44.03355633 -27.12939453 46.05102539 C-27.13254669 47.32317398 -27.13569885 48.59532257 -27.13894653 49.90602112 C-27.13715536 51.30323318 -27.13510406 52.70044492 -27.1328125 54.09765625 C-27.13348632 55.53055335 -27.13445699 56.96345034 -27.13571167 58.39634705 C-27.13718829 61.40673913 -27.13503744 64.41710159 -27.13037109 67.42749023 C-27.12470973 71.26488422 -27.12793004 75.10220771 -27.13394356 78.93959904 C-27.13758094 81.90378842 -27.13639546 84.8679615 -27.13381577 87.83215141 C-27.13315338 89.24537604 -27.13395058 90.65860219 -27.13629532 92.07182503 C-27.14585655 99.46315879 -27.01172386 106.67329072 -26 114 C-24.10353002 113.88506243 -22.20781668 113.75760358 -20.3125 113.625 C-18.72888672 113.52058594 -18.72888672 113.52058594 -17.11328125 113.4140625 C-14.07597703 113.01010485 -11.81568094 112.14954247 -9 111 C-6.8671875 110.83984375 -6.8671875 110.83984375 -4.875 110.9375 C-1.08579325 111.21275664 -1.08579325 111.21275664 2 110 C3.42554642 109.81070499 4.85642471 109.65991271 6.2890625 109.53515625 C7.14040771 109.45845703 7.99175293 109.38175781 8.86889648 109.30273438 C9.77841064 109.22345703 10.6879248 109.14417969 11.625 109.0625 C18.56814202 108.4248217 25.50818816 107.77518281 32.4375 107 C33.11570801 106.92918213 33.79391602 106.85836426 34.49267578 106.78540039 C37.49621232 106.44046594 40.19369435 105.93535297 43.06640625 104.9765625 C46.28175652 103.90620622 49.12328404 103.5920746 52.5 103.375 C54.12421875 103.26285156 54.12421875 103.26285156 55.78125 103.1484375 C59 103 59 103 62.03125 103.1640625 C65.09052611 103.20233745 65.09052611 103.20233745 67.80859375 101.515625 C72.02215085 99.51457218 75.46849942 99.62940277 80.0625 99.75 C81.24682617 99.75773437 81.24682617 99.75773437 82.45507812 99.765625 C86.42084782 99.81881219 90.13067436 100.03461493 94 101 C94 101.33 94 101.66 94 102 C93.26038025 102.09134216 92.5207605 102.18268433 91.75872803 102.27679443 C84.64450588 103.15587839 77.530616 104.03759098 70.41704941 104.92196274 C66.76355045 105.37608635 63.10994831 105.8293354 59.45605469 106.28027344 C42.35757674 108.39116804 25.28648651 110.61135782 8.23852539 113.10351562 C-18.81256903 117.04039289 -18.81256903 117.04039289 -29 117 C-29.0931089 106.40273935 -29.16397108 95.80557769 -29.20724869 85.20798969 C-29.22803075 80.28589127 -29.25617482 75.36407485 -29.30175781 70.44213867 C-29.34555294 65.68290158 -29.36920745 60.92393395 -29.37950897 56.16451073 C-29.38684041 54.35821485 -29.40115517 52.55193196 -29.42292023 50.74575233 C-29.58719537 36.53463769 -28.70000162 23.33097535 -19 12 C-7.25714286 0 -7.25714286 0 0 0 Z " fill="#7655BB" transform="translate(654,120)"/>
<path d="M0 0 C1.18269129 3.54807387 1.11724266 6.33744365 1.10743046 10.08461285 C1.10689593 10.81407506 1.1063614 11.54353728 1.10581067 12.29510441 C1.10276369 14.75851242 1.09248706 17.22183838 1.08229065 19.68522644 C1.07859863 21.46147892 1.07534891 23.23773237 1.07250541 25.01398641 C1.06337923 29.90990392 1.04794634 34.80578472 1.03152263 39.70168245 C1.0149218 44.97569918 1.00411436 50.24972806 0.99261475 55.52375793 C0.97188178 64.66632829 0.94745208 73.80888284 0.92053413 82.951437 C0.88162028 96.17014841 0.84824654 109.38886921 0.81623887 122.60759894 C0.76416147 144.05245665 0.70758364 165.49730005 0.64819336 186.94213867 C0.59049991 207.77774498 0.53491498 228.61335514 0.48217773 249.44897461 C0.47892802 250.73259454 0.4756783 252.01621447 0.4723301 253.33873197 C0.45604078 259.77807062 0.43979304 266.21740937 0.42356598 272.65674818 C0.28882438 326.10451644 0.14678651 379.55226355 0 433 C-0.33 433 -0.66 433 -1 433 C-1 290.77 -1 148.54 -1 2 C-4.96 2.66 -8.92 3.32 -13 4 C-16.796875 3.9765625 -16.796875 3.9765625 -19.75 3.625 C-21.25820313 3.45871094 -21.25820313 3.45871094 -22.796875 3.2890625 C-23.88742187 3.14597656 -23.88742187 3.14597656 -25 3 C-25 2.67 -25 2.34 -25 2 C-23.84242188 1.86722656 -22.68484375 1.73445313 -21.4921875 1.59765625 C-19.95311592 1.41934918 -18.41405393 1.24095938 -16.875 1.0625 C-16.11445312 0.97548828 -15.35390625 0.88847656 -14.5703125 0.79882812 C-11.20882956 0.40762106 -7.90121854 -0.01811369 -4.5703125 -0.62890625 C-2 -1 -2 -1 0 0 Z " fill="#1D0C39" transform="translate(778,264)"/>
<path d="M0 0 C1.17113799 0.00138269 1.17113799 0.00138269 2.36593533 0.00279331 C3.70584782 0.00073132 3.70584782 0.00073132 5.07282925 -0.00137234 C6.55420376 0.00402058 6.55420376 0.00402058 8.06550503 0.00952244 C9.09952953 0.00937641 10.13355404 0.00923038 11.19891262 0.00907993 C14.63485175 0.00977956 18.07073742 0.01757425 21.50666714 0.02539158 C23.88178382 0.02725558 26.25690089 0.02867957 28.63201809 0.0296793 C34.89727233 0.03350586 41.16250356 0.04333732 47.42774868 0.05438328 C53.81537979 0.06459443 60.2030146 0.06917628 66.59065151 0.0742197 C79.13428115 0.08495947 91.6778948 0.10184656 104.22151089 0.12304783 C101.84006088 2.50449784 101.34806866 2.37764323 98.1086874 2.40152073 C96.81719784 2.41826595 96.81719784 2.41826595 95.49961758 2.43534946 C94.5530328 2.43750965 93.60644802 2.43966984 92.63117886 2.44189548 C91.63602261 2.45194111 90.64086636 2.46198673 89.61555386 2.47233677 C86.31494143 2.50331226 83.01441063 2.52024376 79.71369839 2.53711033 C77.42968442 2.55581042 75.14567743 2.57538295 72.86167812 2.59579563 C66.8414461 2.64724524 60.82119165 2.68680219 54.80085659 2.72393894 C48.66106974 2.76389834 42.52137722 2.81502736 36.38166714 2.86523533 C24.32834787 2.96214644 12.27497548 3.04650246 0.22151089 3.12304783 C0.21727895 3.8235784 0.21304701 4.52410896 0.20868683 5.24586773 C0.10534823 22.29725649 -0.00329433 39.34860322 -0.11782837 56.39992046 C-0.17308863 64.64583152 -0.2265587 72.89174691 -0.27580357 81.13769627 C-0.31873368 88.32549112 -0.36503373 95.51325504 -0.41536766 102.701002 C-0.4418976 106.50626667 -0.46674866 110.31152548 -0.48756313 114.11682606 C-0.50721801 117.70038906 -0.53138761 121.28389358 -0.55897999 124.86740398 C-0.57274066 126.80569189 -0.58175009 128.74401171 -0.59060764 130.68232822 C-0.60039646 131.84331532 -0.61018528 133.00430241 -0.62027073 134.20047092 C-0.62672328 135.20522528 -0.63317583 136.20997963 -0.63982391 137.24518108 C-0.78552754 140.26912387 -1.22423821 143.14904895 -1.77848911 146.12304783 C-2.10848911 146.12304783 -2.43848911 146.12304783 -2.77848911 146.12304783 C-2.80181694 127.23466902 -2.81946771 108.34629312 -2.83030128 89.45790291 C-2.83546449 80.68832068 -2.84250765 71.91874738 -2.85392857 63.14917088 C-2.86387466 55.5084188 -2.87034236 47.86767319 -2.87257761 40.22691482 C-2.87388484 36.17866397 -2.8769715 32.13043163 -2.88421917 28.0821867 C-2.89097821 24.27623914 -2.89310631 20.47031781 -2.89159679 16.66436481 C-2.89187318 15.26347111 -2.89387899 13.86257658 -2.89769459 12.46168804 C-2.90262994 10.55715275 -2.90088711 8.65260356 -2.89874363 6.74806309 C-2.89966542 5.67970502 -2.90058722 4.61134695 -2.90153694 3.5106144 C-2.7303462 0.1889037 -2.7303462 0.1889037 0 0 Z " fill="#291B4D" transform="translate(1036.778489112854,384.8769521713257)"/>
<path d="M0 0 C1.65978256 2.48967383 2.85871065 4.72325252 4.0625 7.4375 C4.40410156 8.19933594 4.74570312 8.96117187 5.09765625 9.74609375 C5.92870087 11.8219065 6.51831368 13.81999698 7 16 C7.99 16 8.98 16 10 16 C10.67154933 17.28913487 11.33708859 18.58140204 12 19.875 C12.37125 20.59429688 12.7425 21.31359375 13.125 22.0546875 C14 24 14 24 14 26 C14.66 26 15.32 26 16 26 C16 26.66 16 27.32 16 28 C16.66 28 17.32 28 18 28 C18.66 29.98 19.32 31.96 20 34 C20.66 34 21.32 34 22 34 C22.103125 34.639375 22.20625 35.27875 22.3125 35.9375 C22.539375 36.618125 22.76625 37.29875 23 38 C24.485 38.495 24.485 38.495 26 39 C27.7890625 40.671875 27.7890625 40.671875 29.625 42.75 C30.54152344 43.76320313 30.54152344 43.76320313 31.4765625 44.796875 C33.16084385 47.23260495 33.62322203 49.08760812 34 52 C34.969375 52.268125 35.93875 52.53625 36.9375 52.8125 C38.4534375 53.4003125 38.4534375 53.4003125 40 54 C40.33 54.99 40.66 55.98 41 57 C42.81296615 57.62092718 42.81296615 57.62092718 45 58 C47.625 58.8125 47.625 58.8125 50 60 C50.28359375 60.63808594 50.5671875 61.27617188 50.859375 61.93359375 C52.35508887 64.64329456 53.78726741 65.11490696 56.625 66.25 C57.85089844 66.75273438 57.85089844 66.75273438 59.1015625 67.265625 C59.72804688 67.50796875 60.35453125 67.7503125 61 68 C61 68.66 61 69.32 61 70 C62.1446875 70.0928125 62.1446875 70.0928125 63.3125 70.1875 C69.70410399 71.59581952 75.46428226 74.68337733 81.25 77.6875 C85.63430522 79.78000931 90.29136226 80.86992694 95 82 C95 82.66 95 83.32 95 84 C96.79005941 84.36220266 98.58212057 84.71452469 100.375 85.0625 C101.37273437 85.25972656 102.37046875 85.45695313 103.3984375 85.66015625 C105.97842539 86.24382952 105.97842539 86.24382952 108 85 C108 85.66 108 86.32 108 87 C117.31177062 88.73572278 126.53007103 90.4068511 136 91 C136 91.66 136 92.32 136 93 C149.53 93 163.06 93 177 93 C177 93.33 177 93.66 177 94 C119.02890036 95.04575632 119.02890036 95.04575632 91 85 C89.8140625 84.64421875 88.628125 84.2884375 87.40625 83.921875 C59.99310451 75.6042112 35.27453968 58.87618652 18 36 C17.40832031 35.22398437 16.81664062 34.44796875 16.20703125 33.6484375 C-1.68038439 9.17092136 -1.68038439 9.17092136 -0.6875 1.625 C-0.460625 1.08875 -0.23375 0.5525 0 0 Z " fill="#7854C4" transform="translate(899,612)"/>
<path d="M0 0 C0 25.41 0 50.82 0 77 C-2.35970549 74.64029451 -2.27998222 74.10442626 -2.4140625 70.890625 C-2.45289551 70.00890625 -2.49172852 69.1271875 -2.53173828 68.21875 C-2.57790283 66.74921875 -2.57790283 66.74921875 -2.625 65.25 C-2.66222168 64.22390625 -2.69944336 63.1978125 -2.73779297 62.140625 C-3.0635996 51.76285803 -3.10587049 41.38210948 -3.125 31 C-3.12767883 30.16762817 -3.13035767 29.33525635 -3.13311768 28.47766113 C-3.13899567 26.06839708 -3.13723468 23.65926501 -3.1328125 21.25 C-3.13478638 20.5361615 -3.13676025 19.822323 -3.13879395 19.08685303 C-3.11713886 14.3149997 -2.66691476 9.72602157 -2 5 C-2.99 5.33 -3.98 5.66 -5 6 C-5 5.34 -5 4.68 -5 4 C-8.10397759 3.09046238 -10.89510222 2.86535851 -14.125 2.875 C-14.99382812 2.87242188 -15.86265625 2.86984375 -16.7578125 2.8671875 C-19.03719449 2.85462066 -19.03719449 2.85462066 -21 4 C-22.38282944 4.08422844 -23.76967027 4.10725136 -25.1550293 4.09765625 C-26.44228157 4.09270142 -26.44228157 4.09270142 -27.75553894 4.08764648 C-28.68570328 4.07934814 -29.61586761 4.0710498 -30.57421875 4.0625 C-31.53141312 4.05871338 -32.48860748 4.05492676 -33.47480774 4.05102539 C-37.57757763 4.03466398 -41.68024872 4.00667317 -45.78295898 3.97949219 C-48.77587417 3.96133738 -51.76877275 3.94928109 -54.76171875 3.9375 C-55.68176193 3.92920166 -56.60180511 3.92090332 -57.54972839 3.91235352 C-62.47780446 3.89372668 -67.12090245 4.20852579 -72 5 C-74.78228054 5.09265185 -77.53172997 5.14220697 -80.3125 5.125 C-81.08287598 5.12306641 -81.85325195 5.12113281 -82.64697266 5.11914062 C-89.88125153 5.06641051 -97.08656923 4.68082797 -104.3046875 4.21875 C-106.86634343 4.06710863 -109.43385966 4 -112 4 C-112.33 4.66 -112.66 5.32 -113 6 C-116.3 5.34 -119.6 4.68 -123 4 C-117.9834372 0.6556248 -113.38344143 0.83670877 -107.48144531 0.79467773 C-106.62208374 0.78477814 -105.76272217 0.77487854 -104.87731934 0.76467896 C-102.0276159 0.7330392 -99.17789672 0.70825432 -96.328125 0.68359375 C-94.32867035 0.66298437 -92.32921966 0.64198697 -90.32977295 0.62062073 C-86.12319189 0.57662882 -81.9165965 0.53573748 -77.70996094 0.49731445 C-72.38987313 0.448709 -67.06985342 0.3950729 -61.74983597 0.33933926 C-56.60928287 0.28568209 -51.46870594 0.23450256 -46.328125 0.18359375 C-45.37942787 0.17403593 -44.43073074 0.16447811 -43.45328522 0.15463066 C-28.96759897 0.01123928 -14.48742805 0 0 0 Z " fill="#6545A1" transform="translate(777,116)"/>
<path d="M0 0 C0.33 0 0.66 0 1 0 C1.01030746 1.25423264 1.02061493 2.50846527 1.03123474 3.80070496 C1.12895866 15.61626073 1.23169188 27.43176373 1.33933926 39.24723339 C1.39452151 45.32178635 1.44793407 51.39634416 1.49731445 57.47094727 C1.54502719 63.33241769 1.59737261 69.19383006 1.65294075 75.05523109 C1.67333297 77.29232654 1.69205119 79.52943789 1.70907402 81.76656151 C1.7331873 84.89806238 1.76323255 88.02945404 1.79467773 91.16088867 C1.8004332 92.08733688 1.80618866 93.0137851 1.81211853 93.9683075 C1.82190735 94.82501038 1.83169617 95.68171326 1.84178162 96.56437683 C1.84823417 97.3045766 1.85468672 98.04477636 1.8613348 98.80740643 C1.98182833 101.48909045 1.98182833 101.48909045 3 106 C21.81 106 40.62 106 60 106 C60 161.44 60 216.88 60 274 C59.67 274 59.34 274 59 274 C59 218.89 59 163.78 59 107 C39.53 107 20.06 107 0 107 C0 71.69 0 36.38 0 0 Z " fill="#7756BC" transform="translate(824,278)"/>
<path d="M0 0 C0.33 0 0.66 0 1 0 C1.02505615 0.94319092 1.0501123 1.88638184 1.07592773 2.8581543 C1.17129809 6.37128663 1.27051725 9.88426708 1.37231445 13.3972168 C1.41551548 14.91507755 1.45720048 16.43298226 1.49731445 17.95092773 C1.55537812 20.13799259 1.61896656 22.32483918 1.68359375 24.51171875 C1.72025146 25.82615967 1.75690918 27.14060059 1.79467773 28.49487305 C1.89791527 31.83147946 1.89791527 31.83147946 2.52026367 34.36567593 C3.04252785 37.23352858 3.0208403 39.74422414 2.88110352 42.65431213 C2.83300034 43.76061698 2.78489716 44.86692183 2.7353363 46.00675106 C2.67958939 47.195053 2.62384247 48.38335493 2.56640625 49.60766602 C2.02871709 62.65799718 1.87775059 75.67482439 1.92483521 88.73475456 C1.93792818 92.39711454 1.94419314 96.05943723 1.94897461 99.72181702 C1.96021448 107.46039534 1.97953654 115.19894133 2 122.9375 C2.02368822 131.99810612 2.04397083 141.05869587 2.05593872 150.11932564 C2.06239822 153.72060099 2.07488769 157.32182272 2.08764648 160.92308044 C2.09127639 163.1166072 2.09462845 165.31013444 2.09765625 167.50366211 C2.10282257 168.49832993 2.10798889 169.49299774 2.11331177 170.51780701 C2.11338226 171.43501526 2.11345276 172.35222351 2.11352539 173.29722595 C2.115746 174.08955092 2.11796661 174.8818759 2.12025452 175.69821072 C1.98907961 178.20902698 1.54761937 180.54903863 1 183 C0.67 183 0.34 183 0 183 C0 122.61 0 62.22 0 0 Z " fill="#070906" transform="translate(290,117)"/>
<path d="M0 0 C2.66275637 0.37258718 5.32979358 0.68319585 8 1 C8 1.33 8 1.66 8 2 C7.33581055 2.03963867 6.67162109 2.07927734 5.98730469 2.12011719 C-13.00321202 3.31237647 -28.76971336 4.70780512 -42.4375 19.4375 C-49.03640779 27.80499114 -51.28867805 38.08971474 -51.31884766 48.52734375 C-51.32889328 49.33805832 -51.3389389 50.14877289 -51.34928894 50.98405457 C-51.37991557 53.63519653 -51.39709841 56.28623849 -51.4140625 58.9375 C-51.4327907 60.78695524 -51.45236533 62.63640209 -51.4727478 64.48583984 C-51.52390054 69.33216382 -51.56361613 74.17851545 -51.60089111 79.02496338 C-51.64103688 83.97895046 -51.69208081 88.93282418 -51.7421875 93.88671875 C-51.83874699 103.59106601 -51.92321524 113.29547753 -52 123 C-52.33 123 -52.66 123 -53 123 C-53.176874 111.57819079 -53.342836 100.15628056 -53.49477577 88.73411083 C-53.56566847 83.43063601 -53.64035312 78.12727053 -53.72363281 72.82397461 C-53.80382798 67.70829347 -53.87415514 62.59256402 -53.93757248 57.47664833 C-53.96354372 55.52252496 -53.99310162 53.56844594 -54.02626419 51.61443138 C-54.07202228 48.88255098 -54.10515241 46.15079258 -54.13525391 43.41870117 C-54.16006584 42.20058243 -54.16006584 42.20058243 -54.18537903 40.95785522 C-54.21481281 37.08915782 -54.19934416 35.29901624 -52 32 C-51.66322648 30.69834363 -51.37354464 29.38384449 -51.125 28.0625 C-50.26612299 24.31779623 -48.98784218 22.50593215 -46 20 C-45.67 19.34 -45.34 18.68 -45 18 C-44.34 18 -43.68 18 -43 18 C-42.71125 17.38125 -42.4225 16.7625 -42.125 16.125 C-41 14 -41 14 -39 12 C-38.01 12 -37.02 12 -36 12 C-35.67 11.01 -35.34 10.02 -35 9 C-33.66666667 8.66666667 -32.33333333 8.33333333 -31 8 C-30.67 7.01 -30.34 6.02 -30 5 C-25.77082706 2.25103759 -22.0070961 1.59020905 -17.10546875 1.1796875 C-13.8245882 0.89968656 -10.68852474 0.17213118 -7.5 -0.625 C-4.65149449 -1.05227583 -2.80049391 -0.65127765 0 0 Z " fill="#241645" transform="translate(677,114)"/>
<path d="M0 0 C3.7155278 0.84278786 3.7155278 0.84278786 5.9375 -0.5 C7.6779417 -0.58449628 9.42159722 -0.60723024 11.1640625 -0.59765625 C12.1953125 -0.59443359 13.2265625 -0.59121094 14.2890625 -0.58789062 C15.36929688 -0.57951172 16.44953125 -0.57113281 17.5625 -0.5625 C19.19445312 -0.55573242 19.19445312 -0.55573242 20.859375 -0.54882812 C23.55213789 -0.53701776 26.24479188 -0.52054778 28.9375 -0.5 C28.9375 -0.17 28.9375 0.16 28.9375 0.5 C23.45695916 1.21531636 17.97600045 1.9273077 12.49462891 2.63623047 C10.63025259 2.87783081 8.76599343 3.12033697 6.90185547 3.36376953 C4.22133228 3.71365135 1.54040375 4.06026624 -1.140625 4.40625 C-1.97305725 4.5156189 -2.8054895 4.62498779 -3.66314697 4.7376709 C-4.83390778 4.88782654 -4.83390778 4.88782654 -6.02832031 5.04101562 C-7.05424286 5.17425232 -7.05424286 5.17425232 -8.10089111 5.31018066 C-10.07985732 5.50167962 -12.07428998 5.5 -14.0625 5.5 C-14.0625 40.48 -14.0625 75.46 -14.0625 111.5 C-33.5325 111.5 -53.0025 111.5 -73.0625 111.5 C-73.0625 111.17 -73.0625 110.84 -73.0625 110.5 C-53.9225 110.5 -34.7825 110.5 -15.0625 110.5 C-15.0625 75.19 -15.0625 39.88 -15.0625 3.5 C-3.98237874 -0.65504547 -3.98237874 -0.65504547 0 0 Z " fill="#0F0626" transform="translate(896.0625,163.5)"/>
<path d="M0 0 C19.14 0 38.28 0 58 0 C58.02505615 4.52485107 58.0501123 9.04970215 58.07592773 13.71166992 C58.1597189 28.72717535 58.2483178 43.74264965 58.33933926 58.75811291 C58.39436417 67.85443643 58.4477917 76.95076386 58.49731445 86.04711914 C58.54053695 93.98546753 58.58690352 101.92379062 58.63687855 109.86209947 C58.66317738 114.05628857 58.6880155 118.25047365 58.70907402 122.44469261 C58.79643472 139.65068203 58.93362948 156.81996917 60 174 C59.34 174 58.68 174 58 174 C57.15106076 169.58941273 56.87637051 165.42722017 56.87974548 160.93850708 C56.87889106 160.25142729 56.87803663 159.56434749 56.87715632 158.8564471 C56.87551663 156.56719424 56.88099801 154.27801558 56.88647461 151.98876953 C56.88675683 150.34258526 56.88659806 148.69640087 56.8860321 147.05021667 C56.88574551 142.58995936 56.89162007 138.129729 56.89860606 133.66947794 C56.90486244 129.00498498 56.90544521 124.34049138 56.90663147 119.67599487 C56.90973805 110.84698809 56.91794237 102.01799371 56.92798096 93.18899238 C56.939163 83.13584185 56.94465782 73.08269073 56.94967639 63.02953553 C56.96012553 42.35301523 56.97846266 21.67651193 57 1 C38.19 1 19.38 1 0 1 C0 0.67 0 0.34 0 0 Z " fill="#120829" transform="translate(824,386)"/>
<path d="M0 0 C1.563928 2.84071914 2.3700788 5.28301344 2.8515625 8.484375 C2.98046875 9.33773437 3.109375 10.19109375 3.2421875 11.0703125 C3.36851563 11.95460938 3.49484375 12.83890625 3.625 13.75 C3.82609375 15.05324219 3.82609375 15.05324219 4.03125 16.3828125 C4.8060955 21.6485993 5.1361223 26.67885572 5 32 C-14.46273384 42.50987628 -41.65118432 51.21902631 -64 50 C-64 49.34 -64 48.68 -64 48 C-62.824375 47.87625 -61.64875 47.7525 -60.4375 47.625 C-57.63612933 47.2864806 -55.34678324 46.79435769 -52.625 45.9375 C-49.36124315 45.09342495 -47.46215634 45.00358794 -44.1875 45.1875 C-39.0115316 45.32909184 -35.7616745 43.64807768 -31.30859375 41.16796875 C-28.25897489 39.62509897 -25.37652144 39.37516905 -22 39 C-18.60470051 37.94488701 -15.3227486 36.62988029 -12.11328125 35.1015625 C-8.31309837 33.30451289 -6.04522371 32.6515921 -2 34 C-2 33.34 -2 32.68 -2 32 C-0.35 32 1.3 32 3 32 C2.85904936 30.3745692 2.71207913 28.74965949 2.5625 27.125 C2.48128906 26.22007812 2.40007812 25.31515625 2.31640625 24.3828125 C2.13010715 21.98889139 2.13010715 21.98889139 1 20 C-0.03409157 13.36138744 -0.12835863 6.70317304 0 0 Z " fill="#7150B6" transform="translate(1152,654)"/>
<path d="M0 0 C-6.2623041 2.2289557 -12.48372452 3.86427445 -18.984375 5.25390625 C-21.958826 5.91377374 -21.958826 5.91377374 -24.51171875 7.01953125 C-27.35565045 8.14013856 -30.04607042 8.64450679 -33.0625 9.125 C-34.08472656 9.29257812 -35.10695313 9.46015625 -36.16015625 9.6328125 C-54.82066979 12.04558867 -76.11987269 9.61465024 -94.8125 8.0625 C-95.73321289 7.98789551 -96.65392578 7.91329102 -97.60253906 7.83642578 C-108.81058187 6.80891679 -108.81058187 6.80891679 -114 5 C-114.33 4.34 -114.66 3.68 -115 3 C-113.14955078 3.32484375 -113.14955078 3.32484375 -111.26171875 3.65625 C-76.92506435 9.07478232 -38.84628363 8.28679546 -5.1484375 -0.328125 C-2 -1 -2 -1 0 0 Z " fill="#1A0E35" transform="translate(1124,699)"/>
<path d="M0 0 C0 0.33 0 0.66 0 1 C-1.21236328 1.14695313 -1.21236328 1.14695313 -2.44921875 1.296875 C-3.51785156 1.44640625 -4.58648438 1.5959375 -5.6875 1.75 C-7.27111328 1.95882812 -7.27111328 1.95882812 -8.88671875 2.171875 C-12.09784598 2.78874376 -12.09784598 2.78874376 -14.41015625 5.03515625 C-17.77522119 7.58813916 -20.68384496 7.62634044 -24.75 7.6875 C-26.17974492 7.74200355 -27.60943437 7.79798313 -29.0390625 7.85546875 C-30.99972656 7.92701172 -30.99972656 7.92701172 -33 8 C-39.06922674 8.5099488 -45.2049653 9.06832177 -51 11 C-52.89470816 11.0685495 -54.7916834 11.08480372 -56.6875 11.0625 C-57.68136719 11.05347656 -58.67523437 11.04445312 -59.69921875 11.03515625 C-60.83810547 11.01775391 -60.83810547 11.01775391 -62 11 C-62.33 11.66 -62.66 12.32 -63 13 C-63.51046875 12.84660156 -64.0209375 12.69320312 -64.546875 12.53515625 C-67.7749338 11.83094597 -70.95418001 11.65111796 -74.25 11.4375 C-75.51328125 11.35371094 -76.7765625 11.26992187 -78.078125 11.18359375 C-79.04234375 11.12300781 -80.0065625 11.06242188 -81 11 C-81 10.67 -81 10.34 -81 10 C-79.12973145 9.75878418 -79.12973145 9.75878418 -77.22167969 9.51269531 C-71.39748113 8.76081492 -65.57369896 8.0057391 -59.75 7.25 C-58.70367401 7.1143866 -57.65734802 6.97877319 -56.57931519 6.83905029 C-42.78142728 5.04848165 -28.99434856 3.21598719 -15.23925781 1.11816406 C-10.09397302 0.35156444 -5.2029239 -0.19026163 0 0 Z " fill="#704FB3" transform="translate(974,157)"/>
<path d="M0 0 C5.05724733 0.56191637 9.78121006 2.18747337 14 5 C17.63729413 6.12425455 21.29832588 7.11159821 25 8 C25 8.66 25 9.32 25 10 C26.79005941 10.36220266 28.58212057 10.71452469 30.375 11.0625 C31.37273438 11.25972656 32.37046875 11.45695313 33.3984375 11.66015625 C35.97842539 12.24382952 35.97842539 12.24382952 38 11 C38 11.66 38 12.32 38 13 C47.31177062 14.73572278 56.53007103 16.4068511 66 17 C66 17.66 66 18.32 66 19 C79.53 19 93.06 19 107 19 C107 19.33 107 19.66 107 20 C48.89146593 21.04823554 48.89146593 21.04823554 21 11 C19.66326105 10.56473673 18.32465653 10.13516686 16.984375 9.7109375 C10.36701577 7.60603444 4.0929418 5.35733528 -2 2 C-1.34 1.34 -0.68 0.68 0 0 Z " fill="#704FB5" transform="translate(969,686)"/>
<path d="M0 0 C0.8212231 3.11932321 1.33244056 5.75870453 1 9 C-0.3125 10.8125 -0.3125 10.8125 -2 12 C-2.99 12 -3.98 12 -5 12 C-5.66 13.65 -6.32 15.3 -7 17 C-7.66 17 -8.32 17 -9 17 C-9.495 18.485 -9.495 18.485 -10 20 C-15.72073579 24.00451505 -15.72073579 24.00451505 -20.3203125 23.98828125 C-24.23794156 24.00075778 -27.04660354 24.77122329 -30.75 26 C-36.20719014 27.65457361 -40.81851996 28.37142931 -46.5 28.04296875 C-49.05117004 27.91917774 -49.05117004 27.91917774 -51.7265625 28.484375 C-55.96728027 29.15236396 -60.09073329 29.10691425 -64.375 29.0625 C-65.20644531 29.05798828 -66.03789063 29.05347656 -66.89453125 29.04882812 C-68.92971897 29.03713164 -70.96486923 29.01919935 -73 29 C-73 28.67 -73 28.34 -73 28 C-72.44004837 27.9359346 -71.88009674 27.8718692 -71.30317688 27.80586243 C-65.41074087 27.12824478 -59.52153278 26.42639783 -53.63354492 25.71118164 C-51.44351002 25.44827441 -49.25275337 25.19130197 -47.0612793 24.94067383 C-23.70936176 22.857716 -23.70936176 22.857716 -5 10 C-3.06992759 6.76429037 -1.45384701 3.47385558 0 0 Z " fill="#1D1139" transform="translate(774,199)"/>
<path d="M0 0 C0.33 0 0.66 0 1 0 C1.19110352 1.12156494 1.38220703 2.24312988 1.57910156 3.39868164 C2.14803333 6.73727842 2.71736428 10.07580691 3.28686523 13.41430664 C3.93059516 17.18806474 4.57318308 20.96201504 5.21508789 24.73608398 C7.24477968 36.65637166 7.24477968 36.65637166 9.35546875 48.5625 C9.63632324 50.1247229 9.63632324 50.1247229 9.92285156 51.71850586 C10.2535396 53.54591809 10.58967198 55.37235809 10.93261719 57.19750977 C11.83771414 62.21636308 12.14609447 66.89838118 12 72 C9.72360853 69.72360853 9.58043316 68.77105117 9 65.6875 C8.52681881 63.19907391 8.01443823 61.03421106 7.02734375 58.6953125 C5.71928326 55.26351883 5.14633629 51.79569867 4.5625 48.1875 C3.83947767 43.8118308 3.10396271 39.46735962 2.140625 35.13671875 C-0.44162938 23.40695005 -0.30654733 11.96006208 0 0 Z " fill="#7252B7" transform="translate(1140,582)"/>
<path d="M0 0 C0.99359358 2.98078075 1.12229789 4.89885106 1.11523438 8.00854492 C1.11463013 9.06737381 1.11402588 10.1262027 1.11340332 11.21711731 C1.10367493 12.98716377 1.10367493 12.98716377 1.09375 14.79296875 C1.09016479 16.05312302 1.08657959 17.31327728 1.08288574 18.61161804 C1.01649478 37.49112102 0.76227979 56.37019392 0.53643799 75.24829102 C0.47487593 80.42527859 0.41526684 85.60228867 0.35546875 90.77929688 C0.2388362 100.85288686 0.1201238 110.92645108 0 121 C-0.33 121 -0.66 121 -1 121 C-1 81.73 -1 42.46 -1 2 C-4.96 2.66 -8.92 3.32 -13 4 C-16.796875 3.9765625 -16.796875 3.9765625 -19.75 3.625 C-21.25820313 3.45871094 -21.25820313 3.45871094 -22.796875 3.2890625 C-23.88742187 3.14597656 -23.88742187 3.14597656 -25 3 C-25 2.67 -25 2.34 -25 2 C-23.84242188 1.86722656 -22.68484375 1.73445313 -21.4921875 1.59765625 C-19.95311592 1.41934918 -18.41405393 1.24095938 -16.875 1.0625 C-16.11445312 0.97548828 -15.35390625 0.88847656 -14.5703125 0.79882812 C-11.20882956 0.40762106 -7.90121854 -0.01811369 -4.5703125 -0.62890625 C-2 -1 -2 -1 0 0 Z " fill="#180A35" transform="translate(778,264)"/>
<path d="M0 0 C0.91652344 0.01160156 1.83304688 0.02320312 2.77734375 0.03515625 C3.69644531 0.04417969 4.61554688 0.05320312 5.5625 0.0625 C6.27277344 0.07410156 6.98304688 0.08570312 7.71484375 0.09765625 C7.71484375 0.75765625 7.71484375 1.41765625 7.71484375 2.09765625 C8.45734375 1.89140625 9.19984375 1.68515625 9.96484375 1.47265625 C13.09280443 1.04611616 14.04080116 1.6006495 16.71484375 3.09765625 C-4.65439953 4.3355428 -26.01278109 4.21715346 -47.40875244 4.1663208 C-52.25687212 4.15593058 -57.10499731 4.15149019 -61.953125 4.14648438 C-71.39714952 4.13588881 -80.84115011 4.11891394 -90.28515625 4.09765625 C-90.28515625 3.76765625 -90.28515625 3.43765625 -90.28515625 3.09765625 C-89.19976563 3.03707031 -88.114375 2.97648437 -86.99609375 2.9140625 C-85.55077139 2.82959561 -84.10545943 2.74495074 -82.66015625 2.66015625 C-81.94730469 2.62083984 -81.23445312 2.58152344 -80.5 2.54101562 C-77.30941128 2.35075116 -74.2836879 2.09737752 -71.13671875 1.5 C-67.90367729 1.04383114 -65.492283 1.52100538 -62.28515625 2.09765625 C-59.36757967 2.24479628 -56.45587272 2.23768567 -53.53515625 2.22265625 C-52.76816406 2.22652344 -52.00117187 2.23039062 -51.2109375 2.234375 C-47.1164748 2.32278976 -47.1164748 2.32278976 -43.28515625 1.09765625 C-41.45386854 1.00157017 -39.61895666 0.96783046 -37.78515625 0.97265625 C-36.80546875 0.97007813 -35.82578125 0.9675 -34.81640625 0.96484375 C-32.28515625 1.09765625 -32.28515625 1.09765625 -30.28515625 2.09765625 C-27.95347407 2.19480967 -25.61885668 2.22743842 -23.28515625 2.22265625 C-22.02703125 2.22523437 -20.76890625 2.2278125 -19.47265625 2.23046875 C-16.38837807 2.31992983 -16.38837807 2.31992983 -14.28515625 1.09765625 C-12.43153917 1.05251489 -10.57641962 1.05898583 -8.72265625 1.09765625 C-6.91054844 1.1353594 -5.09705881 1.14418986 -3.28515625 1.09765625 C-2.28515625 0.09765625 -2.28515625 0.09765625 0 0 Z " fill="#160A2B" transform="translate(760.28515625,112.90234375)"/>
<path d="M0 0 C-14.52533222 12.36652138 -34.02953767 15.15279624 -52.4375 15.25 C-53.41009766 15.270625 -54.38269531 15.29125 -55.38476562 15.3125 C-62.07844393 15.34827116 -67.71106537 14.28625835 -74 12 C-74 11.67 -74 11.34 -74 11 C-73.19820312 11.06058594 -72.39640625 11.12117187 -71.5703125 11.18359375 C-68.44315829 11.41405296 -65.31537184 11.6323228 -62.18701172 11.84570312 C-60.69605449 11.95089234 -59.20549288 12.06180821 -57.71533203 12.17773438 C-45.20443056 13.3575507 -45.20443056 13.3575507 -33 11 C-31.80375 10.5875 -30.6075 10.175 -29.375 9.75 C-27.91363259 9.17430981 -26.45591111 8.58935282 -25 8 C-23.79214844 7.51917969 -22.58429688 7.03835938 -21.33984375 6.54296875 C-14.2591091 3.73287189 -14.2591091 3.73287189 -7.21875 0.82421875 C-4.68887835 -0.11557512 -2.67741938 -0.15299539 0 0 Z " fill="#1C1036" transform="translate(1139,572)"/>
<path d="M0 0 C0 0.33 0 0.66 0 1 C-0.93682617 1.11069824 -1.87365234 1.22139648 -2.83886719 1.33544922 C-6.37283413 1.75441569 -9.90647675 2.17594717 -13.43994141 2.59912109 C-14.95837692 2.78046036 -16.47692885 2.96082787 -17.99560547 3.14013672 C-26.1702087 4.10598093 -34.29989444 5.14931269 -42.41259766 6.55810547 C-46.03703332 7.17711175 -49.66457019 7.6630511 -53.3125 8.125 C-54.60800781 8.29257812 -55.90351562 8.46015625 -57.23828125 8.6328125 C-60.85427447 8.98577549 -64.36968964 9.06574948 -68 9 C-64.47352614 6.64901743 -62.26934328 6.61795622 -58.15625 6.34375 C-55.70936243 6.10725762 -55.70936243 6.10725762 -53 4 C-50.80007673 3.73124363 -48.58827637 3.55282593 -46.375 3.4375 C-42.3682245 3.57346982 -42.3682245 3.57346982 -39 2 C-35.50065593 1.47247594 -31.96288485 1.23624734 -28.4375 0.9375 C-27.40294678 0.84807129 -26.36839355 0.75864258 -25.30249023 0.66650391 C-16.84286048 -0.02105792 -8.48354076 -0.22163096 0 0 Z " fill="#1C103C" transform="translate(758,268)"/>
<path d="M0 0 C0 0.66 0 1.32 0 2 C-1.78857422 2.09087891 -1.78857422 2.09087891 -3.61328125 2.18359375 C-5.17969925 2.26801149 -6.74610488 2.35265887 -8.3125 2.4375 C-9.09818359 2.47681641 -9.88386719 2.51613281 -10.69335938 2.55664062 C-11.45068359 2.59853516 -12.20800781 2.64042969 -12.98828125 2.68359375 C-13.68477783 2.72025146 -14.38127441 2.75690918 -15.09887695 2.79467773 C-17.2216572 2.95581153 -17.2216572 2.95581153 -20 4 C-21.66475686 4.34274406 -23.33195323 4.67364302 -25 5 C-25.69738281 5.16757812 -26.39476562 5.33515625 -27.11328125 5.5078125 C-34.7670322 7.33442197 -40.43386482 7.0872097 -48 5 C-48 4.67 -48 4.34 -48 4 C-43.03896943 3.27984422 -38.0768289 2.56809004 -33.11352539 1.86376953 C-31.42863246 1.62350822 -29.74405294 1.38103735 -28.05981445 1.13623047 C-25.62532278 0.78277834 -23.18977827 0.43754459 -20.75390625 0.09375 C-20.01290176 -0.0156189 -19.27189728 -0.12498779 -18.50843811 -0.2376709 C-5.95044822 -1.98348274 -5.95044822 -1.98348274 0 0 Z " fill="#7552BC" transform="translate(685,280)"/>
<path d="M0 0 C34.32 0 68.64 0 104 0 C104 0.33 104 0.66 104 1 C102.22932584 1.16834933 100.45845388 1.33461909 98.6875 1.5 C97.70136719 1.5928125 96.71523438 1.685625 95.69921875 1.78125 C93 2 93 2 90 2 C84.43265207 2.3522004 84.43265207 2.3522004 78.8671875 2.73242188 C78.09117187 2.78076172 77.31515625 2.82910156 76.515625 2.87890625 C75.46810059 2.94960327 75.46810059 2.94960327 74.39941406 3.02172852 C72 3 72 3 69.00634766 2.51147461 C63.49928593 1.66755426 57.93906864 1.89777147 52.3828125 1.9375 C50.56521927 1.94317993 50.56521927 1.94317993 48.71090698 1.94897461 C43.54730035 1.96526057 38.38377412 1.99338896 33.22021484 2.02050781 C29.44108449 2.03865146 25.66196717 2.05070886 21.8828125 2.0625 C20.14803146 2.07494751 20.14803146 2.07494751 18.37820435 2.08764648 C12.16044331 2.10635389 6.16402782 1.82762684 0 1 C0 0.67 0 0.34 0 0 Z " fill="#120C1F" transform="translate(638,698)"/>
<path d="M0 0 C0 0.33 0 0.66 0 1 C-12.95823319 3.06454811 -25.92333868 5.06824334 -38.9375 6.75 C-39.88753906 6.87737549 -40.83757813 7.00475098 -41.81640625 7.13598633 C-48.23889986 7.94275555 -54.53017559 8.14093772 -61 8 C-59.68 7.67 -58.36 7.34 -57 7 C-57 6.34 -57 5.68 -57 5 C-52.45244717 4.42253297 -48.08399695 3.94123024 -43.5 4.0625 C-40.43107946 4.1069005 -37.77929097 3.81057175 -34.8046875 3.06640625 C-30.09828251 1.97208481 -25.42907729 1.35417781 -20.625 0.875 C-19.80153076 0.79008301 -18.97806152 0.70516602 -18.12963867 0.61767578 C-12.07561178 0.02648777 -6.08376563 -0.2460849 0 0 Z " fill="#180A37" transform="translate(687,277)"/>
<path d="M0 0 C0.33 0 0.66 0 1 0 C1 25.74 1 51.48 1 78 C8.26 77.67 15.52 77.34 23 77 C23 77.66 23 78.32 23 79 C22.11957031 79.06058594 21.23914063 79.12117188 20.33203125 79.18359375 C19.17058594 79.26738281 18.00914062 79.35117188 16.8125 79.4375 C15.66394531 79.51871094 14.51539063 79.59992188 13.33203125 79.68359375 C10.10287317 79.90174698 10.10287317 79.90174698 7.44921875 80.66015625 C5 81 5 81 -1 79 C-0.67 52.93 -0.34 26.86 0 0 Z " fill="#0A0026" transform="translate(623,159)"/>
<path d="M0 0 C0.66 0 1.32 0 2 0 C2.78817566 20.34583233 3.14284831 40.63862166 3 61 C2.67 61 2.34 61 2 61 C1.32374348 57.00155126 0.65938425 53.0012635 0 49 C-0.12890625 48.24589844 -0.2578125 47.49179687 -0.390625 46.71484375 C-1.11446629 42.22893258 -1.11446629 42.22893258 0 40 C0.09649939 38.0018949 0.12980872 36.0004282 0.125 34 C0.12757812 32.9275 0.13015625 31.855 0.1328125 30.75 C0.1872341 28.03817948 0.1872341 28.03817948 -1 26 C-0.90913246 23.87194092 -0.75217377 21.74653629 -0.5625 19.625 C-0.033764 13.06325065 0.10845323 6.57949591 0 0 Z " fill="#7A55CA" transform="translate(1031,475)"/>
<path d="M0 0 C0.33 0 0.66 0 1 0 C2.50530533 7.65196877 1.6290724 13.06177342 -2 20 C-6.54022468 26.74249459 -12.20786013 31.47041463 -20 34 C-22.80078125 34.12109375 -22.80078125 34.12109375 -25 34 C-22 32 -22 32 -19.4375 31.625 C-16.83047912 31.25262441 -16.83047912 31.25262441 -15.6875 28.9375 C-15.460625 28.298125 -15.23375 27.65875 -15 27 C-14.01 27 -13.02 27 -12 27 C-11.7525 26.4225 -11.505 25.845 -11.25 25.25 C-10 23 -10 23 -8.125 21.25 C-2.43972618 15.23029831 -1.11589085 7.98742926 0 0 Z " fill="#7B58C2" transform="translate(774,186)"/>
<path d="M0 0 C-3.69942869 2.21774537 -7.6218582 2.81054914 -11.8125 3.5 C-12.57167725 3.62745605 -13.33085449 3.75491211 -14.11303711 3.88623047 C-16.40741403 4.26587385 -18.70349372 4.63349303 -21 5 C-22.19109375 5.19851562 -23.3821875 5.39703125 -24.609375 5.6015625 C-36.33941441 7.3796454 -48.1566737 7.63803475 -60 8 C-56.91456392 5.53732364 -55.4251366 4.64559282 -51.4375 4.875 C-48.44802722 5.02623808 -46.91083169 4.97027723 -44 4 C-42.57445358 3.81070499 -41.14357529 3.65991271 -39.7109375 3.53515625 C-38.85959229 3.4582959 -38.00824707 3.38143555 -37.13110352 3.30224609 C-36.22158936 3.22312988 -35.3120752 3.14401367 -34.375 3.0625 C-26.73395411 2.37259633 -19.11657452 1.59218686 -11.50732422 0.60961914 C-7.64505318 0.12719963 -3.89147172 -0.08420495 0 0 Z " fill="#7A57C4" transform="translate(700,226)"/>
<path d="M0 0 C0.33 0 0.66 0 1 0 C0.91621094 0.65484375 0.83242188 1.3096875 0.74609375 1.984375 C0.05829782 8.14841956 0.08601306 13.82385611 0.84375 19.98046875 C1.00171917 23.03322297 0.62930909 25.82372349 0.23254395 28.84440613 C-0.1243497 32.15267443 -0.09226308 35.42891571 -0.0625 38.75390625 C-0.05871338 39.45845444 -0.05492676 40.16300262 -0.05102539 40.88890076 C-0.03894464 43.11350032 -0.02032647 45.3379615 0 47.5625 C0.02678884 50.50129909 0.04668342 53.44002983 0.0625 56.37890625 C0.07410156 57.6738501 0.08570313 58.96879395 0.09765625 60.30297852 C0.00052804 63.9800096 -0.40567499 67.37760078 -1 71 C-1.33 71 -1.66 71 -2 71 C-2.04641547 62.62869104 -2.0819159 54.25743618 -2.10362434 45.8860302 C-2.11404523 41.99851804 -2.12817333 38.11109417 -2.15087891 34.22363281 C-2.17266794 30.46944439 -2.18458137 26.7153407 -2.18975449 22.9610939 C-2.19343939 21.53142082 -2.20063505 20.10175218 -2.21146011 18.67211533 C-2.22605481 16.66410627 -2.2268176 14.6560113 -2.22705078 12.64794922 C-2.231492 11.50655487 -2.23593323 10.36516052 -2.24050903 9.18917847 C-1.9877562 5.83764579 -1.19394316 3.13016909 0 0 Z " fill="#7952CE" transform="translate(628,154)"/>
<path d="M0 0 C0.33 0 0.66 0 1 0 C1.01030746 0.5593222 1.02061493 1.11864441 1.03123474 1.69491577 C1.1391881 7.5021358 1.25379498 13.30919714 1.37231445 19.11621094 C1.41569919 21.28512256 1.45737161 23.45406913 1.49731445 25.62304688 C1.55493139 28.73578435 1.61865038 31.84834535 1.68359375 34.9609375 C1.70030624 35.934935 1.71701874 36.9089325 1.73423767 37.91244507 C1.75418289 38.81322784 1.77412811 39.71401062 1.79467773 40.64208984 C1.81022202 41.43706879 1.8257663 42.23204773 1.84178162 43.05111694 C1.88441725 45.07997774 1.88441725 45.07997774 3 47 C2.90627508 48.75356294 2.74764213 50.50372117 2.5625 52.25 C1.69203216 62.1487817 1.91310919 72.07172235 2 82 C1.34 82 0.68 82 0 82 C0 54.94 0 27.88 0 0 Z " fill="#120F1F" transform="translate(1036,192)"/>
<path d="M0 0 C0 1.65 0 3.3 0 5 C-0.52464844 4.66355469 -1.04929687 4.32710937 -1.58984375 3.98046875 C-4.78406085 2.68103845 -7.14426663 2.98973166 -10.5625 3.3125 C-11.69816406 3.41175781 -12.83382812 3.51101562 -14.00390625 3.61328125 C-17.04505616 3.90825048 -17.04505616 3.90825048 -20 5 C-22.19880694 5.28663662 -24.40311298 5.53182426 -26.609375 5.75390625 C-27.92164063 5.88603516 -29.23390625 6.01816406 -30.5859375 6.15429688 C-31.27010742 6.22124756 -31.95427734 6.28819824 -32.65917969 6.35717773 C-34.72906721 6.56044436 -36.79811638 6.77102536 -38.8671875 6.98242188 C-40.1978725 7.11502734 -41.52860047 7.24720233 -42.859375 7.37890625 C-44.66100098 7.55788452 -44.66100098 7.55788452 -46.49902344 7.74047852 C-50.01335212 8.00098977 -53.47743471 8.04477837 -57 8 C-54.24629628 6.48487298 -51.97891574 5.68992772 -48.86157227 5.32983398 C-48.05716202 5.23310898 -47.25275177 5.13638397 -46.42396545 5.03672791 C-45.56347092 4.94081863 -44.70297638 4.84490936 -43.81640625 4.74609375 C-42.92388657 4.64031509 -42.03136688 4.53453644 -41.11180115 4.42555237 C-38.26280892 4.08914373 -35.41276776 3.76290817 -32.5625 3.4375 C-29.71605812 3.10663031 -26.86988038 2.77364096 -24.02391052 2.43873596 C-22.25459035 2.23116075 -20.48495589 2.02624266 -18.71498108 1.82432556 C-2.54057113 -0.04981512 -2.54057113 -0.04981512 0 0 Z " fill="#6D52A7" transform="translate(1034,149)"/>
<path d="M0 0 C3.7155278 0.84278786 3.7155278 0.84278786 5.9375 -0.5 C7.6779417 -0.58449628 9.42159722 -0.60723024 11.1640625 -0.59765625 C12.1953125 -0.59443359 13.2265625 -0.59121094 14.2890625 -0.58789062 C15.90941406 -0.57532227 15.90941406 -0.57532227 17.5625 -0.5625 C19.19445312 -0.55573242 19.19445312 -0.55573242 20.859375 -0.54882812 C23.55213789 -0.53701776 26.24479188 -0.52054778 28.9375 -0.5 C28.9375 -0.17 28.9375 0.16 28.9375 0.5 C27.7822583 0.64622803 26.6270166 0.79245605 25.43676758 0.94311523 C21.1408014 1.48737072 16.8451378 2.03398297 12.54956055 2.58129883 C10.69222012 2.81761693 8.83479882 3.05330031 6.97729492 3.28833008 C4.30365707 3.62673808 1.63032071 3.96744585 -1.04296875 4.30859375 C-1.87023972 4.41280136 -2.69751068 4.51700897 -3.54985046 4.62437439 C-7.42245465 5.12072756 -11.24542941 5.66112041 -15.0625 6.5 C-15.0625 5.51 -15.0625 4.52 -15.0625 3.5 C-13.79192818 3.02014033 -12.52103152 2.5411407 -11.25 2.0625 C-10.54230469 1.79566406 -9.83460938 1.52882812 -9.10546875 1.25390625 C-5.69165591 -0.00587555 -3.57713808 -0.58838907 0 0 Z " fill="#180F32" transform="translate(896.0625,163.5)"/>
<path d="M0 0 C1.91619141 0.21462891 1.91619141 0.21462891 3.87109375 0.43359375 C8.9328907 0.99601563 13.99727126 1.53200669 19.0625 2.0625 C19.92810547 2.15337891 20.79371094 2.24425781 21.68554688 2.33789062 C23.7903392 2.55883568 25.89516595 2.77945279 28 3 C28 3.66 28 4.32 28 5 C41.53 5 55.06 5 69 5 C69 5.33 69 5.66 69 6 C25.92849466 6.56988354 25.92849466 6.56988354 12.5625 4.6875 C11.71478027 4.56979248 10.86706055 4.45208496 9.99365234 4.33081055 C5.95578094 3.661543 3.00278888 2.85865502 0 0 Z " fill="#6A4DA9" transform="translate(1007,700)"/>
<path d="M0 0 C1.13917218 3.41751653 1.11338481 6.03487937 1.09765625 9.63671875 C1.09443359 10.93544922 1.09121094 12.23417969 1.08789062 13.57226562 C1.07953531 14.94401108 1.07107037 16.31575587 1.0625 17.6875 C1.05748335 19.07096195 1.05292073 20.45442563 1.04882812 21.83789062 C1.03702529 25.22530395 1.02056019 28.61263033 1 32 C0.67 32 0.34 32 0 32 C-0.72904559 21.97562315 -1.14141393 12.05610192 -1 2 C-1.72703125 2.15597656 -2.4540625 2.31195313 -3.203125 2.47265625 C-10.73595364 3.93093462 -17.40291894 3.99678014 -25 3 C-25 2.67 -25 2.34 -25 2 C-23.84242188 1.86722656 -22.68484375 1.73445313 -21.4921875 1.59765625 C-19.95311592 1.41934918 -18.41405393 1.24095938 -16.875 1.0625 C-16.11445312 0.97548828 -15.35390625 0.88847656 -14.5703125 0.79882812 C-11.20882956 0.40762106 -7.90121854 -0.01811369 -4.5703125 -0.62890625 C-2 -1 -2 -1 0 0 Z " fill="#0E071F" transform="translate(778,264)"/>
<path d="M0 0 C1.24898071 0.07069702 1.24898071 0.07069702 2.52319336 0.14282227 C3.871875 0.21533203 3.871875 0.21533203 5.24780273 0.28930664 C6.19333008 0.34538086 7.13885742 0.40145508 8.11303711 0.45922852 C9.53712891 0.53753906 9.53712891 0.53753906 10.98999023 0.61743164 C13.34380663 0.74754209 15.6972441 0.88251963 18.05053711 1.02172852 C18.05053711 1.35172852 18.05053711 1.68172852 18.05053711 2.02172852 C13.74616739 2.59635767 9.4411573 3.16584729 5.13549805 3.73071289 C3.67274918 3.92333294 2.21018005 4.11732331 0.74780273 4.31274414 C-1.361758 4.59440211 -3.47192932 4.87102408 -5.58227539 5.14672852 C-7.48323975 5.3980957 -7.48323975 5.3980957 -9.42260742 5.65454102 C-12.63253345 5.9887324 -15.72583536 6.09114714 -18.94946289 6.02172852 C-19.27946289 5.36172852 -19.60946289 4.70172852 -19.94946289 4.02172852 C-18.81508789 3.89797852 -17.68071289 3.77422852 -16.51196289 3.64672852 C-15.33633789 3.44047852 -14.16071289 3.23422852 -12.94946289 3.02172852 C-12.61946289 2.36172852 -12.28946289 1.70172852 -11.94946289 1.02172852 C-11.31137695 1.03333008 -10.67329102 1.04493164 -10.01586914 1.05688477 C-9.18958008 1.0659082 -8.36329102 1.07493164 -7.51196289 1.08422852 C-6.27639648 1.10163086 -6.27639648 1.10163086 -5.01586914 1.11938477 C-2.54002451 1.00237888 -2.44120919 0.02720947 0 0 Z " fill="#19112F" transform="translate(1003.949462890625,148.978271484375)"/>
<path d="M0 0 C1.66611905 -0.042721 3.33382885 -0.04063832 5 0 C6 1 6 1 6.12025452 3.85365295 C6.1169236 5.76893044 6.1169236 5.76893044 6.11352539 7.72290039 C6.11367142 8.4253035 6.11381744 9.1277066 6.1139679 9.85139465 C6.11326872 12.18351278 6.10547617 14.515552 6.09765625 16.84765625 C6.09579208 18.46048438 6.09436818 20.07331307 6.09336853 21.68614197 C6.08954323 25.93915357 6.07971285 30.19213124 6.06866455 34.44512939 C6.05845069 38.7817743 6.05387096 43.11842467 6.04882812 47.45507812 C6.03809059 55.97006769 6.02101403 64.48502963 6 73 C5.67 73 5.34 73 5 73 C4.1800624 58.3289736 3.89047981 43.69069213 3.875 29 C3.87250244 28.16780945 3.87000488 27.3356189 3.86743164 26.47821045 C3.86149398 24.06876559 3.86304978 21.65944655 3.8671875 19.25 C3.86520355 18.53615143 3.8632196 17.82230286 3.86117554 17.08682251 C3.88290119 12.31498231 4.33308658 7.72601207 5 3 C4.01 3.33 3.02 3.66 2 4 C2 3.34 2 2.68 2 2 C1.34 2 0.68 2 0 2 C0 1.34 0 0.68 0 0 Z " fill="#815EC9" transform="translate(770,118)"/>
<path d="M0 0 C-3.16477712 2.10985141 -4.32933301 2.31174223 -8 2.5625 C-8.98871094 2.6346875 -9.97742188 2.706875 -10.99609375 2.78125 C-11.98738281 2.8534375 -12.97867188 2.925625 -14 3 C-15.68753169 3.18721461 -17.37503183 3.37471374 -19.0625 3.5625 C-27.01647672 4.30456197 -35.02050807 4.07900487 -43 4 C-43 3.67 -43 3.34 -43 3 C-28.56698957 0.78437183 -14.60224226 -0.43182973 0 0 Z " fill="#160B2E" transform="translate(744,224)"/>
<path d="M0 0 C0.33 0.99 0.66 1.98 1 3 C-0.45706726 3.50367757 -1.91570096 4.00282556 -3.375 4.5 C-4.18710937 4.7784375 -4.99921875 5.056875 -5.8359375 5.34375 C-8 6 -8 6 -10 6 C-10 6.99 -10 7.98 -10 9 C-10.66 9 -11.32 9 -12 9 C-12.33 9.99 -12.66 10.98 -13 12 C-13.66 12 -14.32 12 -15 12 C-15 12.66 -15 13.32 -15 14 C-16.65532623 15.01866229 -18.32260138 16.01810813 -20 17 C-20.33 17.66 -20.66 18.32 -21 19 C-21.66 19 -22.32 19 -23 19 C-20.66355088 10.43301989 -12.50341464 5.76543807 -5.453125 1.28515625 C-3 0 -3 0 0 0 Z " fill="#704EB5" transform="translate(654,120)"/>
<path d="M0 0 C-6.19204404 5.28449027 -14.4277337 10.40494559 -22.8125 10.375 C-23.864375 10.25125 -24.91625 10.1275 -26 10 C-23.38933146 6.82461238 -20.43145927 5.82681408 -16.625 4.4375 C-15.50351563 4.02371094 -14.38203125 3.60992188 -13.2265625 3.18359375 C-12.16179687 2.79300781 -11.09703125 2.40242187 -10 2 C-9.09636719 1.62230469 -8.19273438 1.24460937 -7.26171875 0.85546875 C-4.70702166 -0.11081564 -2.70888778 -0.15479359 0 0 Z " fill="#171127" transform="translate(1139,572)"/>
<path d="M0 0 C2 3 2 3 3 8 C21.81 8 40.62 8 60 8 C59.67 8.66 59.34 9.32 59 10 C29.795 9.505 29.795 9.505 0 9 C0 6.03 0 3.06 0 0 Z " fill="#805FC9" transform="translate(824,376)"/>
<path d="M0 0 C-1.0625 1.5 -1.0625 1.5 -3 3 C-5.33288492 3.04574284 -7.66698014 3.03824623 -10 3 C-11.34280969 3.29283276 -12.6770675 3.62752386 -14 4 C-17.79153437 5.05155836 -21.07658796 5.1634755 -25 5 C-25.33 4.01 -25.66 3.02 -26 2 C-22.4184073 1.46669495 -18.83454729 0.95053833 -15.25 0.4375 C-14.23421875 0.28603516 -13.2184375 0.13457031 -12.171875 -0.02148438 C-11.1921875 -0.16005859 -10.2125 -0.29863281 -9.203125 -0.44140625 C-7.85202637 -0.63778687 -7.85202637 -0.63778687 -6.47363281 -0.83813477 C-4.04031365 -0.99736203 -2.30785997 -0.73710222 0 0 Z " fill="#7B54C7" transform="translate(988,157)"/>
<path d="M0 0 C2.05078125 0.03255208 4.1015625 0.06510417 6.15234375 0.09765625 C6.15234375 0.75765625 6.15234375 1.41765625 6.15234375 2.09765625 C6.81234375 2.42765625 7.47234375 2.75765625 8.15234375 3.09765625 C-10.32765625 3.09765625 -28.80765625 3.09765625 -47.84765625 3.09765625 C-47.84765625 2.76765625 -47.84765625 2.43765625 -47.84765625 2.09765625 C-47.28611343 2.08734879 -46.72457062 2.07704132 -46.14601135 2.06642151 C-40.32272159 1.9585794 -34.49959361 1.84396417 -28.67651367 1.7253418 C-26.50076672 1.68192118 -24.32498411 1.64025154 -22.14916992 1.6003418 C-19.02902457 1.54281123 -15.90905992 1.47906802 -12.7890625 1.4140625 C-11.80990372 1.39735001 -10.83074493 1.38063751 -9.82191467 1.36341858 C-8.92105637 1.34347336 -8.02019806 1.32352814 -7.09204102 1.30297852 C-5.89624168 1.27966209 -5.89624168 1.27966209 -4.67628479 1.25587463 C-2.44904423 1.06316715 -2.24075194 0.11843298 0 0 Z " fill="#060606" transform="translate(202.84765625,112.90234375)"/>
<path d="M0 0 C0.33 0 0.66 0 1 0 C1.81489186 4.35372252 2.62648711 8.70805337 3.4375 13.0625 C3.78264648 14.90618164 3.78264648 14.90618164 4.13476562 16.78710938 C4.35712891 17.98271484 4.57949219 19.17832031 4.80859375 20.41015625 C5.11494751 22.05189819 5.11494751 22.05189819 5.42749023 23.72680664 C6.02499554 27.14290626 6.52662291 30.56468919 7 34 C6.01 34 5.02 34 4 34 C3.814375 32.4221875 3.814375 32.4221875 3.625 30.8125 C3.17939657 27.16394219 3.17939657 27.16394219 1.98681641 24.59301758 C0.93070698 21.81792154 0.68971243 19.65680439 0.5859375 16.69921875 C0.54726563 15.72275391 0.50859375 14.74628906 0.46875 13.74023438 C0.4378125 12.73283203 0.406875 11.72542969 0.375 10.6875 C0.33632813 9.66076172 0.29765625 8.63402344 0.2578125 7.57617188 C0.16385103 5.05095735 0.0781846 2.52574408 0 0 Z " fill="#1D0F39" transform="translate(884,562)"/>
<path d="M0 0 C2.65067354 2.65067354 2.38329043 4.24471497 2.625 7.9375 C2.69976563 8.99839844 2.77453125 10.05929687 2.8515625 11.15234375 C2.95306279 13.09954677 3 15.05015336 3 17 C3.54682968 19.51962291 4.14583789 22.022781 4.7578125 24.52734375 C5.04015275 27.40994666 4.36625216 28.51623375 3 31 C2.1336267 26.56479234 1.28399392 22.12654107 0.4375 17.6875 C0.19064453 16.42486328 -0.05621094 15.16222656 -0.31054688 13.86132812 C-0.53935547 12.65283203 -0.76816406 11.44433594 -1.00390625 10.19921875 C-1.21861572 9.08377686 -1.4333252 7.96833496 -1.65454102 6.8190918 C-2 4 -2 4 -1 1 C-0.67 0.67 -0.34 0.34 0 0 Z " fill="#744FBD" transform="translate(886,558)"/>
<path d="M0 0 C0 3.3 0 6.6 0 10 C-0.66 10 -1.32 10 -2 10 C-2 7.36 -2 4.72 -2 2 C-3.9587043 2.14076315 -5.91696093 2.2877676 -7.875 2.4375 C-8.96554687 2.51871094 -10.05609375 2.59992188 -11.1796875 2.68359375 C-13.94728971 2.83001703 -13.94728971 2.83001703 -16 4 C-16 3.34 -16 2.68 -16 2 C-18.64 2 -21.28 2 -24 2 C-24 1.67 -24 1.34 -24 1 C-21.81347261 0.66034526 -19.62571975 0.32857523 -17.4375 0 C-16.21933594 -0.185625 -15.00117187 -0.37125 -13.74609375 -0.5625 C-8.93451831 -1.12443582 -4.63218442 -1.54406147 0 0 Z " fill="#714EBC" transform="translate(775,268)"/>
<path d="M0 0 C2.40741468 4.44622998 3.98178792 9.24007001 5.70117188 13.98046875 C6.89587541 17.22541799 8.14113904 20.28227807 9.69140625 23.3828125 C11 26 11 26 11 28 C10.01 28 9.02 28 8 28 C8 26.68 8 25.36 8 24 C7.34 24 6.68 24 6 24 C6 22.68 6 21.36 6 20 C5.01 19.67 4.02 19.34 3 19 C3.33 17.35 3.66 15.7 4 14 C3.34 14 2.68 14 2 14 C-0.3992233 9.35150485 -0.19957409 5.08913926 0 0 Z " fill="#1D1136" transform="translate(891,596)"/>
<path d="M0 0 C6.4943847 9.74157705 5.65442891 23.71531649 6 35 C4.25746924 31.89472083 3.51531531 29.109325 2.9296875 25.60546875 C2.75566406 24.56712891 2.58164063 23.52878906 2.40234375 22.45898438 C2.14130859 20.83959961 2.14130859 20.83959961 1.875 19.1875 C1.69324219 18.11951172 1.51148438 17.05152344 1.32421875 15.95117188 C0.43854733 10.56722193 -0.23351586 5.45648722 0 0 Z " fill="#190F34" transform="translate(1148,623)"/>
<path d="M0 0 C1.59412284 3.18824568 1.10174735 6.62896662 1.0625 10.125 C1.05798828 10.87910156 1.05347656 11.63320312 1.04882812 12.41015625 C1.03703499 14.27347127 1.01909942 16.13674555 1 18 C0.67 18 0.34 18 0 18 C-0.33 13.05 -0.66 8.1 -1 3 C-5.13405735 2.17318853 -7.16436847 1.96707099 -11.125 2.5 C-14.37106069 2.93412362 -15.82993608 3.05668797 -19 2 C-15.52990269 -0.31339821 -13.61483064 -0.40483708 -9.5 -0.6875 C-8.3553125 -0.77386719 -7.210625 -0.86023438 -6.03125 -0.94921875 C-3 -1 -3 -1 0 0 Z M-24 2 C-22.35 2 -20.7 2 -19 2 C-19.66 2.66 -20.32 3.32 -21 4 C-21.99 3.34 -22.98 2.68 -24 2 Z " fill="#7752C4" transform="translate(1033,152)"/>
<path d="M0 0 C0.46148438 0.35191406 0.92296875 0.70382812 1.3984375 1.06640625 C6.15032527 4.66319086 10.98700174 8.10871327 15.8984375 11.484375 C18 13 18 13 20 15 C13.36433371 14.02416672 5.19376479 10.45189423 1 5 C0.3125 2.3125 0.3125 2.3125 0 0 Z " fill="#1B1330" transform="translate(934,666)"/>
<path d="M0 0 C0.33 0 0.66 0 1 0 C1 7.59 1 15.18 1 23 C0.34 23 -0.32 23 -1 23 C-0.67 28.28 -0.34 33.56 0 39 C-2.10172215 34.79655571 -2.30801976 31.91660005 -2.25 27.375 C-2.24613281 26.64095947 -2.24226563 25.90691895 -2.23828125 25.15063477 C-2.10980615 16.70607363 -1.09578935 8.36517761 0 0 Z " fill="#18132A" transform="translate(1037,507)"/>
<path d="M0 0 C-2.8504615 1.90030766 -4.00405608 2.34945176 -7.23828125 2.8515625 C-8.05876953 2.98046875 -8.87925781 3.109375 -9.72460938 3.2421875 C-11.00561523 3.43167969 -11.00561523 3.43167969 -12.3125 3.625 C-13.15490234 3.7590625 -13.99730469 3.893125 -14.86523438 4.03125 C-23.59394579 5.36887896 -23.59394579 5.36887896 -28 5 C-28.66 4.34 -29.32 3.68 -30 3 C-20.05460612 0.94714315 -10.16028783 -0.09112366 0 0 Z " fill="#110927" transform="translate(976,155)"/>
<path d="M0 0 C2.33458635 3.50187953 2.67260727 4.88028047 2 9 C-1.45557961 12.366975 -4.18284957 13.23517488 -8.875 13.25 C-10.25105487 13.18641991 -11.62686409 13.10985087 -13 13 C-10.71540242 10.71540242 -8.87462656 10.02870252 -5.875 8.875 C-4.96492188 8.52179687 -4.05484375 8.16859375 -3.1171875 7.8046875 C-2.06917969 7.40636719 -2.06917969 7.40636719 -1 7 C-0.67 4.69 -0.34 2.38 0 0 Z " fill="#20153B" transform="translate(1157,679)"/>
<path d="M0 0 C8.58 0 17.16 0 26 0 C25.67 0.66 25.34 1.32 25 2 C22.33383784 2.2242 19.66830733 2.42964971 17 2.625 C15.88431641 2.72167969 15.88431641 2.72167969 14.74609375 2.8203125 C9.39331828 3.19267949 5.14556096 2.53197383 0 1 C0 0.67 0 0.34 0 0 Z " fill="#7D57CB" transform="translate(1077,588)"/>
<path d="M0 0 C5.32797794 5.32797794 7.59676313 11.60732409 8 19 C8.66 19 9.32 19 10 19 C9.67 19.99 9.34 20.98 9 22 C5.61672247 18.19742739 3.90090566 14.67485536 2.25 9.875 C1.82203125 8.65554688 1.3940625 7.43609375 0.953125 6.1796875 C0 3 0 3 0 0 Z " fill="#170F2E" transform="translate(1037,547)"/>
<path d="M0 0 C5.2838982 1.29401589 9.4789956 2.92571701 14 6 C14.9375 8.25 14.9375 8.25 15 10 C8.71309239 8.20374068 3.60822701 5.61279757 0 0 Z " fill="#150D28" transform="translate(1050,573)"/>
<path d="M0 0 C1.60645435 2.40968153 2.69180071 4.43481784 3.8125 7.0625 C5.71918347 11.46809438 7.8849887 15.6994363 10.14453125 19.93359375 C10.42683594 20.61550781 10.70914063 21.29742188 11 22 C10.67 22.66 10.34 23.32 10 24 C8.72710095 21.79283537 7.4566395 19.58432515 6.1875 17.375 C5.83107422 16.75753906 5.47464844 16.14007812 5.10742188 15.50390625 C-1.09182603 4.6978778 -1.09182603 4.6978778 -0.6875 1.625 C-0.460625 1.08875 -0.23375 0.5525 0 0 Z " fill="#7A5ABA" transform="translate(899,612)"/>
<path d="M0 0 C3.93929995 3.93929995 4.35266849 8.63639609 5 14 C5.185625 15.299375 5.37125 16.59875 5.5625 17.9375 C5.706875 18.948125 5.85125 19.95875 6 21 C3.83921227 17.75881841 2.65115273 14.71790415 1.3125 11.0625 C0.85488281 9.83660156 0.39726563 8.61070312 -0.07421875 7.34765625 C-0.93811367 4.22378307 -1.21062031 2.92750001 0 0 Z " fill="#7C58C4" transform="translate(892,592)"/>
<path d="M0 0 C0.33 0 0.66 0 1 0 C1 1.65 1 3.3 1 5 C8.59 4.67 16.18 4.34 24 4 C24 4.66 24 5.32 24 6 C22.67935547 6.09087891 22.67935547 6.09087891 21.33203125 6.18359375 C19.58986328 6.30927734 19.58986328 6.30927734 17.8125 6.4375 C16.66394531 6.51871094 15.51539063 6.59992188 14.33203125 6.68359375 C11.08326368 6.92482406 11.08326368 6.92482406 8.28125 7.59375 C5.11814928 8.15704191 2.93792004 7.16150327 0 6 C0 4.02 0 2.04 0 0 Z " fill="#140C24" transform="translate(622,232)"/>
<path d="M0 0 C4.21477565 4.07881515 8.10803395 8.41690528 12.01171875 12.79296875 C13.30508896 14.2286351 14.6336281 15.6336281 16 17 C11.75153925 16.52794881 9.73180712 14.11122478 7 11 C7 10.34 7 9.68 7 9 C5.35 8.67 3.7 8.34 2 8 C2 6.68 2 5.36 2 4 C1.34 4 0.68 4 0 4 C0 2.68 0 1.36 0 0 Z " fill="#1B0F38" transform="translate(918,649)"/>
<path d="M0 0 C0.66 0 1.32 0 2 0 C3.24514463 1.50728034 4.48711549 3.01763214 5.6953125 4.5546875 C6.97843228 6.17281758 6.97843228 6.17281758 9.25 7 C9.8275 7.33 10.405 7.66 11 8 C11.75 11.125 11.75 11.125 12 14 C7.4857225 10.33133644 3.49848894 6.66465192 0 2 C0 1.34 0 0.68 0 0 Z " fill="#7656B6" transform="translate(921,651)"/>
<path d="M0 0 C0.66 0 1.32 0 2 0 C3.94288985 5.82866955 5.12280804 11.82889583 5 18 C4.34 18.66 3.68 19.32 3 20 C2.49685437 17.22970414 1.99736162 14.4588348 1.5 11.6875 C1.35691406 10.90181641 1.21382812 10.11613281 1.06640625 9.30664062 C0.93105469 8.54931641 0.79570313 7.79199219 0.65625 7.01171875 C0.53056641 6.31522217 0.40488281 5.61872559 0.27539062 4.90112305 C0 3 0 3 0 0 Z " fill="#170E2F" transform="translate(1139,574)"/>
<path d="M0 0 C0 0.66 0 1.32 0 2 C-3.12343663 4.08229108 -3.53852922 4.23770457 -7.01171875 3.9765625 C-7.76904297 3.925 -8.52636719 3.8734375 -9.30664062 3.8203125 C-10.48516602 3.72363281 -10.48516602 3.72363281 -11.6875 3.625 C-12.48478516 3.56828125 -13.28207031 3.5115625 -14.10351562 3.453125 C-16.06973581 3.31183972 -18.03498824 3.15720094 -20 3 C-20 2.67 -20 2.34 -20 2 C-17.79248152 1.66131223 -15.58394089 1.32928311 -13.375 1 C-12.14523437 0.814375 -10.91546875 0.62875 -9.6484375 0.4375 C-6.3833973 0.04597484 -3.28287549 -0.08080924 0 0 Z " fill="#6B4EAA" transform="translate(913,165)"/>
<path d="M0 0 C-2.67031284 2.67733998 -4.03721441 3.00280229 -7.890625 3.29296875 C-9.34404009 3.27314945 -10.79731167 3.23754845 -12.25 3.1875 C-12.99507812 3.17396484 -13.74015625 3.16042969 -14.5078125 3.14648438 C-16.33885416 3.11127204 -18.16952169 3.05746851 -20 3 C-17.23040385 0.23040385 -14.97306704 0.34450927 -11.125 -0.1875 C-9.89007812 -0.36667969 -8.65515625 -0.54585937 -7.3828125 -0.73046875 C-4.49405581 -0.96063528 -2.68714237 -0.95197757 0 0 Z " fill="#754AC8" transform="translate(961,161)"/>
<path d="M0 0 C0.74846191 0.0093457 1.49692383 0.01869141 2.26806641 0.02832031 C3.09306641 0.03347656 3.91806641 0.03863281 4.76806641 0.04394531 C5.62658203 0.06457031 6.48509766 0.08519531 7.36962891 0.10644531 C8.64580078 0.11417969 8.64580078 0.11417969 9.94775391 0.12207031 C14.07753534 0.17353176 17.9691893 0.32937842 21.99462891 1.35644531 C21.99462891 1.68644531 21.99462891 2.01644531 21.99462891 2.35644531 C8.62962891 2.85144531 8.62962891 2.85144531 -5.00537109 3.35644531 C-2.00537109 0.35644531 -2.00537109 0.35644531 0 0 Z " fill="#754FC3" transform="translate(726.00537109375,219.6435546875)"/>
<path d="M0 0 C0 0.33 0 0.66 0 1 C-7.9446047 2.89231726 -14.91027535 3.04474629 -23 2 C-23 1.67 -23 1.34 -23 1 C-15.307359 0.15199233 -7.73708326 -0.12152487 0 0 Z " fill="#180D31" transform="translate(776,265)"/>
<path d="M0 0 C0 0.33 0 0.66 0 1 C-1.11375 1.185625 -1.11375 1.185625 -2.25 1.375 C-4.9334184 1.83582776 -4.9334184 1.83582776 -6.78125 3.0625 C-9.78940219 4.33355022 -12.02470683 3.97557534 -15.25 3.625 C-16.32765625 3.51414062 -17.4053125 3.40328125 -18.515625 3.2890625 C-19.74539063 3.14597656 -19.74539063 3.14597656 -21 3 C-21 2.67 -21 2.34 -21 2 C-13.90294338 0.65504172 -7.2274605 -0.24091535 0 0 Z " fill="#7253B7" transform="translate(734,272)"/>
<path d="M0 0 C0 0.66 0 1.32 0 2 C-5.71271093 4.0662997 -10.03654233 4.0006709 -16 3 C-16 2.34 -16 1.68 -16 1 C-10.62915894 0.31798844 -5.41499441 -0.11521265 0 0 Z " fill="#7F5ACB" transform="translate(1008,154)"/>
<path d="M0 0 C1.86785156 0.01353516 1.86785156 0.01353516 3.7734375 0.02734375 C5.18496094 0.04474609 5.18496094 0.04474609 6.625 0.0625 C6.625 0.3925 6.625 0.7225 6.625 1.0625 C-7.0082574 3.35862756 -7.0082574 3.35862756 -13.375 3.0625 C-13.375 2.4025 -13.375 1.7425 -13.375 1.0625 C-8.85684719 0.17972245 -4.59987306 -0.04339503 0 0 Z " fill="#160C30" transform="translate(939.375,159.9375)"/>
<path d="M0 0 C0.66 0.66 1.32 1.32 2 2 C1.06027344 2.19916016 1.06027344 2.19916016 0.1015625 2.40234375 C-1.12433594 2.66724609 -1.12433594 2.66724609 -2.375 2.9375 C-3.18710937 3.11152344 -3.99921875 3.28554688 -4.8359375 3.46484375 C-7.029463 3.92330693 -7.029463 3.92330693 -9 5 C-9 4.34 -9 3.68 -9 3 C-11.97 2.505 -11.97 2.505 -15 2 C-15 1.67 -15 1.34 -15 1 C-9.92327799 0.15387967 -5.15130782 -0.26193091 0 0 Z " fill="#7353B9" transform="translate(750,270)"/>
<path d="M0 0 C2.6624956 0.3746476 5.32976394 0.68319233 8 1 C8 1.33 8 1.66 8 2 C0.41 2 -7.18 2 -15 2 C-11.08099464 -1.91900536 -5.04707483 -1.26176871 0 0 Z " fill="#150F21" transform="translate(677,114)"/>
<path d="M0 0 C1.48828125 0.98828125 1.48828125 0.98828125 3 3 C3.21714241 5.81127043 3.28284276 8.3883345 3.1875 11.1875 C3.16719727 12.31188477 3.16719727 12.31188477 3.14648438 13.45898438 C3.11118539 15.30629767 3.05737917 17.15324066 3 19 C2.67 19 2.34 19 2 19 C1.66089006 16.95928485 1.32897296 14.91737379 1 12.875 C0.814375 11.73804688 0.62875 10.60109375 0.4375 9.4296875 C0.03043951 6.23862398 -0.07809902 3.21182209 0 0 Z " fill="#1B1038" transform="translate(1154,659)"/>
<path d="M0 0 C0.66 0.33 1.32 0.66 2 1 C3.30060902 7.1840278 3.10141817 13.71207322 3 20 C2.67 20 2.34 20 2 20 C1.47008907 16.8556249 0.95259982 13.70933252 0.4375 10.5625 C0.28603516 9.66466797 0.13457031 8.76683594 -0.02148438 7.84179688 C-0.16005859 6.98779297 -0.29863281 6.13378906 -0.44140625 5.25390625 C-0.57232666 4.46314697 -0.70324707 3.6723877 -0.83813477 2.85766602 C-0.89155029 2.24463623 -0.94496582 1.63160645 -1 1 C-0.67 0.67 -0.34 0.34 0 0 Z " fill="#7951CC" transform="translate(1150,653)"/>
<path d="M0 0 C0.33 0.66 0.66 1.32 1 2 C-3.873261 3.5912689 -7.80790596 4.21192221 -13 4 C-11.68 3.67 -10.36 3.34 -9 3 C-9 2.34 -9 1.68 -9 1 C-5.8035914 -0.06546953 -3.34252724 -0.07427838 0 0 Z " fill="#170D28" transform="translate(639,281)"/>
<path d="M0 0 C0.99 0.66 1.98 1.32 3 2 C-1.64144669 3.76054874 -6.27775484 5.46527032 -11 7 C-11 6.01 -11 5.02 -11 4 C-9.72942818 3.52014033 -8.45853152 3.0411407 -7.1875 2.5625 C-6.47980469 2.29566406 -5.77210938 2.02882812 -5.04296875 1.75390625 C-3.37327604 1.13774814 -1.68842296 0.56280765 0 0 Z " fill="#181424" transform="translate(892,163)"/>
<path d="M0 0 C0.33 0.99 0.66 1.98 1 3 C-2.13498292 4.85776765 -4.37471432 5.20140476 -8 5 C-7 2 -7 2 -5.125 0.8125 C-3 0 -3 0 0 0 Z " fill="#7452B8" transform="translate(654,120)"/>
<path d="M0 0 C1.32 0.66 2.64 1.32 4 2 C0.93753253 3.78409802 -1.22079273 4.22880021 -4.75 4.125 C-5.54921875 4.10695313 -6.3484375 4.08890625 -7.171875 4.0703125 C-7.77515625 4.04710937 -8.3784375 4.02390625 -9 4 C-9 3.34 -9 2.68 -9 2 C-6.94921875 1.77213542 -4.8984375 1.54427083 -2.84765625 1.31640625 C-0.98859771 1.18113386 -0.98859771 1.18113386 0 0 Z " fill="#7552BB" transform="translate(1097,700)"/>
<path d="M0 0 C0.33 0 0.66 0 1 0 C1.66 5.61 2.32 11.22 3 17 C2.01 16.34 1.02 15.68 0 15 C-0.22137393 12.37302936 -0.28162025 9.99106036 -0.1875 7.375 C-0.17396484 6.66859375 -0.16042969 5.9621875 -0.14648438 5.234375 C-0.1111104 3.48925872 -0.05730221 1.74453392 0 0 Z " fill="#644B9D" transform="translate(1145,610)"/>
<path d="M0 0 C3.8063457 0.67170806 7.35206816 1.72746564 11 3 C10.67 3.99 10.34 4.98 10 6 C6.40992874 4.66654496 3.20429093 3.1056769 0 1 C0 0.67 0 0.34 0 0 Z " fill="#7556B7" transform="translate(949,677)"/>
<path d="M0 0 C0 0.66 0 1.32 0 2 C-0.70125 1.9278125 -1.4025 1.855625 -2.125 1.78125 C-7.78307538 1.22774263 -13.31588941 0.89275263 -19 1 C-19 0.67 -19 0.34 -19 0 C-12.72500803 -1.06808374 -6.13103517 -2.04367839 0 0 Z " fill="#6C4CAE" transform="translate(685,280)"/>
<path d="M0 0 C2.64 0 5.28 0 8 0 C7.34 1.65 6.68 3.3 6 5 C3.69 4.67 1.38 4.34 -1 4 C-0.67 2.68 -0.34 1.36 0 0 Z " fill="#7D57CE" transform="translate(892,168)"/>
<path d="M0 0 C-1.77444972 2.24606427 -2.58352485 2.95081002 -5.48046875 3.29296875 C-6.82044922 3.24076172 -6.82044922 3.24076172 -8.1875 3.1875 C-9.53908203 3.14689453 -9.53908203 3.14689453 -10.91796875 3.10546875 C-11.60503906 3.07066406 -12.29210938 3.03585937 -13 3 C-8.83099908 0.22066605 -4.8978425 -1.63261417 0 0 Z " fill="#170D2C" transform="translate(1145,693)"/>
<path d="M0 0 C0.33 1.32 0.66 2.64 1 4 C-0.24735567 4.6509259 -1.49801832 5.29551669 -2.75 5.9375 C-3.44609375 6.29714844 -4.1421875 6.65679688 -4.859375 7.02734375 C-6.90224433 7.95558182 -8.81115376 8.53166578 -11 9 C-11 8.34 -11 7.68 -11 7 C-9.35 6.67 -7.7 6.34 -6 6 C-6 5.34 -6 4.68 -6 4 C-4.35 4 -2.7 4 -1 4 C-0.67 2.68 -0.34 1.36 0 0 Z " fill="#7A5ABC" transform="translate(1156,682)"/>
<path d="M0 0 C3.13269705 3.13269705 3.05494397 5.97328423 3.0625 10.25 C3.041875 11.4875 3.02125 12.725 3 14 C-0.2102122 10.7897878 0.01025241 7.62539686 -0.0625 3.1875 C-0.041875 2.135625 -0.02125 1.08375 0 0 Z " fill="#7254B2" transform="translate(1149,640)"/>
<path d="M0 0 C1.33804688 0.17982422 1.33804688 0.17982422 2.703125 0.36328125 C3.37859375 0.47027344 4.0540625 0.57726562 4.75 0.6875 C1.32905758 2.96812828 0.06812778 2.90675007 -3.9375 2.8125 C-5.42830078 2.78542969 -5.42830078 2.78542969 -6.94921875 2.7578125 C-7.70847656 2.73460937 -8.46773437 2.71140625 -9.25 2.6875 C-6.03037108 -0.23875152 -4.27288159 -0.61844339 0 0 Z " fill="#120C21" transform="translate(688.25,274.3125)"/>
<path d="M0 0 C0.66 0.33 1.32 0.66 2 1 C-0.475 5.455 -0.475 5.455 -3 10 C-5 6 -5 6 -5 4 C-4.01 4 -3.02 4 -2 4 C-1.34 2.68 -0.68 1.36 0 0 Z " fill="#734DC0" transform="translate(635,135)"/>
<path d="M0 0 C0 1.65 0 3.3 0 5 C-0.66 4.34 -1.32 3.68 -2 3 C-4.43252661 2.53837573 -4.43252661 2.53837573 -7.125 2.375 C-8.03507812 2.30023438 -8.94515625 2.22546875 -9.8828125 2.1484375 C-10.58148437 2.09945312 -11.28015625 2.05046875 -12 2 C-12 1.67 -12 1.34 -12 1 C-7.9472484 0.01751476 -4.16138263 -0.08159574 0 0 Z " fill="#654B98" transform="translate(1034,149)"/>
<path d="M0 0 C3.63 0 7.26 0 11 0 C10.67 0.66 10.34 1.32 10 2 C6.18015204 2.77811718 3.73159669 3.24386556 0 2 C0 1.34 0 0.68 0 0 Z " fill="#140E1E" transform="translate(626,698)"/>
<path d="M0 0 C3.63 1.98 7.26 3.96 11 6 C10.67 6.66 10.34 7.32 10 8 C8.02 7.34 6.04 6.68 4 6 C4 5.34 4 4.68 4 4 C2.68 3.34 1.36 2.68 0 2 C0 1.34 0 0.68 0 0 Z " fill="#7254AE" transform="translate(1052,576)"/>
<path d="M0 0 C0.66 0.33 1.32 0.66 2 1 C1.34 2.65 0.68 4.3 0 6 C-0.66 6 -1.32 6 -2 6 C-2 7.65 -2 9.3 -2 11 C-2.99 11.495 -2.99 11.495 -4 12 C-3.71640113 10.5608866 -3.42278601 9.12374482 -3.125 7.6875 C-2.96257813 6.88699219 -2.80015625 6.08648437 -2.6328125 5.26171875 C-2 3 -2 3 0 0 Z " fill="#120C21" transform="translate(778,194)"/>
<path d="M0 0 C1.90608098 3.21182149 2.22266247 5.53882603 2.125 9.25 C2.10695313 10.14203125 2.08890625 11.0340625 2.0703125 11.953125 C2.04710937 12.62859375 2.02390625 13.3040625 2 14 C-0.55902083 9.05952306 -1.41067779 5.48596918 0 0 Z " fill="#744CCB" transform="translate(1141,600)"/>
<path d="M0 0 C4.28806873 0.47645208 6.26647487 1.65902484 9 5 C9 5.66 9 6.32 9 7 C8.01 7 7.02 7 6 7 C6 6.34 6 5.68 6 5 C5.38125 4.731875 4.7625 4.46375 4.125 4.1875 C2 3 2 3 0 0 Z " fill="#754DC5" transform="translate(1047,575)"/>
<path d="M0 0 C0.33 0 0.66 0 1 0 C1 1.65 1 3.3 1 5 C1.99 5 2.98 5 4 5 C4.33 6.98 4.66 8.96 5 11 C4.01 10.67 3.02 10.34 2 10 C2 8.68 2 7.36 2 6 C1.34 6 0.68 6 0 6 C0 4.02 0 2.04 0 0 Z " fill="#7A57C2" transform="translate(1037,554)"/>
<path d="M0 0 C3.91211733 1.15585285 6.8745041 2.35534962 10 5 C9.01 5.495 9.01 5.495 8 6 C6.0546875 5.22265625 6.0546875 5.22265625 3.875 4.0625 C3.15054688 3.68222656 2.42609375 3.30195312 1.6796875 2.91015625 C1.12539063 2.60980469 0.57109375 2.30945313 0 2 C0 1.34 0 0.68 0 0 Z " fill="#180D33" transform="translate(965,687)"/>
<path d="M0 0 C2 2 2 2 2.1953125 4.1640625 C2.16050781 5.38222656 2.16050781 5.38222656 2.125 6.625 C2.10695313 7.44226563 2.08890625 8.25953125 2.0703125 9.1015625 C2.04710937 9.72804688 2.02390625 10.35453125 2 11 C-0.30694043 7.53958935 -0.62056512 5.09789669 -1 1 C-0.67 0.67 -0.34 0.34 0 0 Z " fill="#724FB7" transform="translate(892,592)"/>
<path d="M0 0 C2.32472205 2.85306797 3.7508258 5.54074837 5 9 C3.68 8.67 2.36 8.34 1 8 C0.67 5.36 0.34 2.72 0 0 Z " fill="#21143C" transform="translate(902,624)"/>
<path d="M0 0 C1.98 1.65 3.96 3.3 6 5 C3 6 3 6 0.8125 5.0625 C0.214375 4.711875 -0.38375 4.36125 -1 4 C-0.67 2.68 -0.34 1.36 0 0 Z " fill="#6E4FAB" transform="translate(1046,570)"/>
<path d="M0 0 C2.64 1.98 5.28 3.96 8 6 C5 7 5 7 2.875 6.375 C1 5 1 5 0.25 2.375 C0.1675 1.59125 0.085 0.8075 0 0 Z " fill="#1F123C" transform="translate(934,666)"/>
<path d="M0 0 C3 2 3 2 3.6875 5.125 C3.8421875 6.548125 3.8421875 6.548125 4 8 C2 6.8125 2 6.8125 0 5 C-0.25 2.3125 -0.25 2.3125 0 0 Z " fill="#704CB7" transform="translate(929,657)"/>
<path d="M0 0 C1.8871875 0.061875 1.8871875 0.061875 3.8125 0.125 C1.61286434 2.32463566 0.81902461 2.69549648 -2.1875 3.125 C-4.9375 2.6875 -4.9375 2.6875 -7.1875 2.125 C-4.09861478 0.06574319 -3.47814073 -0.1140374 0 0 Z " fill="#7153AF" transform="translate(661.1875,117.875)"/>
<path d="M0 0 C0 0.66 0 1.32 0 2 C-2.95664519 3.4783226 -5.74229737 3.06032783 -9 3 C-5.92807025 0.26939578 -4.09590633 -0.34132553 0 0 Z " fill="#764EC9" transform="translate(1115,697)"/>
<path d="M0 0 C0.99 0.495 0.99 0.495 2 1 C2.73075648 3.3140622 3.40138258 5.64828869 4 8 C3.01 8 2.02 8 1 8 C0.67 5.36 0.34 2.72 0 0 Z " fill="#221540" transform="translate(898,616)"/>
<path d="M0 0 C2.25 0.25 2.25 0.25 4 1 C4 1.66 4 2.32 4 3 C2.02 3 0.04 3 -2 3 C-2 3.66 -2 4.32 -2 5 C-2.66 4.67 -3.32 4.34 -4 4 C-2.25 1.9375 -2.25 1.9375 0 0 Z " fill="#1B151E" transform="translate(626,281)"/>
<path d="M0 0 C0.66 0 1.32 0 2 0 C2 3 2 3 0.125 5.1875 C-2 7 -2 7 -4 7 C-2.92598892 4.08482708 -2.22189824 2.22189824 0 0 Z " fill="#6C4EA5" transform="translate(635,132)"/>
</svg>
